<?xml version="1.0" encoding="UTF-8" standalone="no"?>
<svg
   xmlns:dc="http://purl.org/dc/elements/1.1/"
   xmlns:cc="http://creativecommons.org/ns#"
   xmlns:rdf="http://www.w3.org/1999/02/22-rdf-syntax-ns#"
   xmlns:svg="http://www.w3.org/2000/svg"
   xmlns="http://www.w3.org/2000/svg"
   xmlns:sodipodi="http://sodipodi.sourceforge.net/DTD/sodipodi-0.dtd"
   xmlns:inkscape="http://www.inkscape.org/namespaces/inkscape"
   version="1.0"
   width="1572pt"
   height="688.91498pt"
   viewBox="0 0 1572 688.91498"
   preserveAspectRatio="xMidYMid meet"
   id="svg2"
   inkscape:version="0.92.0 r15299"
   sodipodi:docname="BNDES - colorido com margem.svg"
   inkscape:export-filename="D:\Users\rfwal\Pictures\bndes\BNDES - colorido com margem - 1024px.png"
   inkscape:export-xdpi="107.02046"
   inkscape:export-ydpi="107.02046">
  <defs
     id="defs24" />
  <sodipodi:namedview
     pagecolor="#ffffff"
     bordercolor="#666666"
     borderopacity="1"
     objecttolerance="10"
     gridtolerance="10"
     guidetolerance="10"
     inkscape:pageopacity="0"
     inkscape:pageshadow="2"
     inkscape:window-width="1350"
     inkscape:window-height="915"
     id="namedview22"
     showgrid="false"
     inkscape:zoom="0.23264942"
     inkscape:cx="-9.8334042"
     inkscape:cy="594.55843"
     inkscape:window-x="0"
     inkscape:window-y="0"
     inkscape:window-maximized="0"
     inkscape:current-layer="g6"
     fit-margin-top="230"
     fit-margin-left="230"
     fit-margin-right="230"
     fit-margin-bottom="230" />
  <metadata
     id="metadata4">
Created by potrace 1.13, written by Peter Selinger 2001-2015
<rdf:RDF>
  <cc:Work
     rdf:about="">
    <dc:format>image/svg+xml</dc:format>
    <dc:type
       rdf:resource="http://purl.org/dc/dcmitype/StillImage" />
    <dc:title />
  </cc:Work>
</rdf:RDF>
</metadata>
  <g
     transform="matrix(0.1,0,0,-0.1,230,470)"
     id="g6"
     style="fill:#000000;stroke:none">
    <path
       d="m 0,1938 v -463 l 453,453 452,452 665,-665 665,-665 -448,-448 C 1541,356 1340,152 1340,147 c 0,-4 207,-7 460,-7 h 460 V 1270 2400 H 1130 0 Z"
       id="path8"
       style="fill:#009933;fill-opacity:1"
       inkscape:connector-curvature="0" />
    <path
       d="m 10368,2195 c -274,-52 -467,-219 -507,-439 -35,-194 13,-375 133,-499 62,-65 133,-113 293,-201 144,-79 213,-129 252,-182 77,-105 60,-242 -40,-328 -66,-56 -124,-71 -264,-70 -136,1 -217,21 -389,95 -54,23 -100,38 -103,35 -5,-5 -92,-358 -93,-377 0,-8 188,-65 295,-90 116,-26 396,-37 515,-20 290,43 487,182 560,398 31,92 39,278 16,376 -45,194 -151,309 -439,476 -159,92 -208,129 -248,184 -64,88 -41,192 53,247 126,71 343,62 550,-25 35,-15 70,-29 78,-31 12,-4 22,29 53,168 20,95 37,181 37,190 0,19 -104,56 -230,83 -108,23 -421,29 -522,10 z"
       id="path10"
       style="fill:#1e428b;fill-opacity:1"
       inkscape:connector-curvature="0" />
    <path
       d="M 3096,2153 C 3087,2106 2820,181 2820,159 v -21 l 423,5 c 461,5 509,10 682,68 256,86 385,240 402,479 15,215 -80,419 -228,487 -21,10 -39,20 -39,23 0,3 29,20 65,39 111,57 206,180 234,302 15,64 13,164 -4,238 -45,188 -177,311 -400,372 -74,21 -107,23 -467,27 l -386,4 z m 689,-354 c 51,-14 100,-51 121,-91 19,-36 21,-121 5,-171 -16,-47 -89,-111 -150,-132 -55,-18 -188,-35 -280,-35 h -63 l 5,28 c 3,15 17,117 33,226 l 28,199 130,-7 c 72,-3 149,-11 171,-17 z m -131,-784 c 99,-17 162,-54 196,-115 21,-37 25,-58 24,-120 -1,-162 -97,-245 -312,-270 -126,-14 -262,-13 -262,3 0,6 16,124 35,262 19,137 35,251 35,252 0,9 218,0 284,-12 z"
       id="path12"
       style="fill:#1e428b;fill-opacity:1"
       inkscape:connector-curvature="0" />
    <path
       d="m 4720,2176 c 0,-2 -65,-453 -145,-1002 -80,-548 -145,-1006 -145,-1016 0,-17 13,-18 214,-18 h 213 l 5,33 c 3,17 47,339 99,715 51,375 96,682 99,682 3,0 115,-322 250,-715 l 245,-715 h 278 c 152,0 277,2 277,4 0,11 291,1993 295,2014 l 5,22 h -214 -213 l -6,-27 c -2,-16 -49,-334 -103,-708 -53,-374 -100,-683 -103,-687 -3,-3 -118,315 -256,708 l -250,714 h -272 c -150,0 -273,-2 -273,-4 z"
       id="path14"
       style="fill:#1e428b;fill-opacity:1"
       inkscape:connector-curvature="0" />
    <path
       d="M 6506,1193 C 6430,650 6365,190 6362,172 l -5,-32 h 404 c 222,0 446,5 497,10 428,45 713,221 867,535 81,165 114,316 115,522 1,446 -184,763 -522,893 -171,66 -219,72 -668,77 l -405,5 z m 745,616 c 276,-28 449,-153 504,-364 10,-39 15,-104 15,-190 0,-255 -60,-428 -194,-560 C 7438,558 7254,500 6962,500 h -104 l 6,27 c 3,16 45,313 93,661 l 87,632 h 52 c 29,0 98,-5 155,-11 z"
       id="path16"
       style="fill:#1e428b;fill-opacity:1"
       inkscape:connector-curvature="0" />
    <path
       d="m 8560,2173 c -1,-5 -65,-462 -144,-1018 l -142,-1010 615,-3 c 338,-1 616,-1 617,1 4,3 54,328 54,346 0,8 -121,11 -390,11 h -390 v 23 c 1,12 16,126 34,252 l 32,230 351,3 350,2 17,138 c 9,75 20,156 23,180 l 6,42 h -347 c -288,0 -346,2 -346,14 0,13 44,334 56,404 l 5,32 h 389 c 305,0 390,3 390,13 0,6 9,82 20,167 11,85 20,161 20,168 0,9 -129,12 -610,12 -335,0 -610,-3 -610,-7 z"
       id="path18"
       style="fill:#1e428b;fill-opacity:1"
       inkscape:connector-curvature="0" />
    <path
       d="M 545,1594 C 355,1563 175,1462 53,1318 L 0,1256 V 698 140 h 548 c 609,0 551,-7 641,72 111,96 212,268 245,415 9,42 16,117 16,180 0,203 -59,365 -189,520 -86,103 -257,210 -396,248 -60,16 -263,28 -320,19 z"
       id="path20"
       style="fill:#009933;fill-opacity:1"
       inkscape:connector-curvature="0" />
  </g>
</svg>