<svg xmlns="http://www.w3.org/2000/svg" width="141.371" height="58.166" viewBox="0 0 141.371 58.166"><g transform="translate(-1325 -3125)"><g transform="translate(1325 3125)"><g transform="translate(0 0.02)"><path d="M19.825,33.365c-8.647,0-15.683-6.534-15.683-14.558S11.178,4.248,19.825,4.248H40.933V1.76A1.71,1.71,0,0,0,39.223.05H19.9C8.926.05,0,8.469,0,18.826S8.926,37.6,19.9,37.6H39.223a1.71,1.71,0,0,0,1.71-1.71V33.361H19.825Z" transform="translate(0 -0.05)" fill="#ed193f"/><path d="M28.812,19.305H48.135a1.712,1.712,0,0,0,1.71-1.71V15.02H28.737c-7.67,0-13.917,5.736-13.917,12.788S21.063,40.6,28.737,40.6H49.845V38.066a1.71,1.71,0,0,0-1.71-1.71H28.812c-5.322,0-9.647-3.823-9.647-8.527S23.494,19.305,28.812,19.305Z" transform="translate(-8.912 -9.052)" fill="#ed193f"/></g><g transform="translate(45.282)"><path d="M164.794,0h-2.783V29.631a.49.49,0,0,1-.734.423l-32.8-19.139a.487.487,0,0,0-.734.423V37.612l2.806,0a1.152,1.152,0,0,0,1.152-1.148V17.74l32.509,19.33a1.161,1.161,0,0,0,1.383-.159,1.139,1.139,0,0,0,.355-.829V1.152A1.155,1.155,0,0,0,164.794,0Z" transform="translate(-122.099)" fill="#ed193f"/><path d="M117.461,8.26a.487.487,0,0,1,.733-.423L151,26.976a.488.488,0,0,0,.734-.423V0h-2.866a1.155,1.155,0,0,0-1.152,1.152V19.9L115.328.7a1.141,1.141,0,0,0-.586-.163,1.155,1.155,0,0,0-1.152,1.152v34.7a1.185,1.185,0,0,0,1.331,1.216l2.543,0V8.26Z" transform="translate(-113.59)" fill="#ed193f"/></g><g transform="translate(92.672 0.028)"><path d="M279.8,73.285a.425.425,0,0,0-.359-.2H254.327a.424.424,0,0,0-.355.2l-5.162,8.252H252.7a1.023,1.023,0,0,0,.873-.482l3-4.776,20.474-.016,3.062,4.8a1.033,1.033,0,0,0,.873.478h4.038Z" transform="translate(-242.296 -43.981)" fill="#ed193f"/><path d="M281,36.032,258.21.544a1.032,1.032,0,0,0-1.726-.016L232.645,36.016a1.03,1.03,0,0,0,.857,1.607h3.376L256.81,6.456a.426.426,0,0,1,.714,0l19.793,31.162h2.818A1.034,1.034,0,0,0,281,36.032Z" transform="translate(-232.469 -0.07)" fill="#ed193f"/><g transform="translate(13.304 9.5)"><path d="M288.376,41.082,277.581,24.1a.426.426,0,0,0-.714,0L265.908,41.078a.422.422,0,0,0,.355.65h21.754A.421.421,0,0,0,288.376,41.082Zm-7.116-3.273h-7.993a.5.5,0,0,1-.427-.761l3.891-6.315a.5.5,0,0,1,.841-.012l4.106,6.315A.5.5,0,0,1,281.26,37.809Z" transform="translate(-265.841 -23.901)" fill="#ed193f" fill-rule="evenodd"/></g></g></g><g transform="translate(1335.811 3167.926)"><g transform="translate(0 0)"><path d="M28.447,107.68a1.327,1.327,0,1,1-1.327,1.343A1.326,1.326,0,0,1,28.447,107.68ZM27.379,119.6v-7.965h2.153V119.6Z" transform="translate(-27.12 -107.68)" fill="#2c307b"/><path d="M40.953,125.246H38.8v-7.965h2.089v.989a2.648,2.648,0,0,1,2.3-1.2c1.977,0,2.882,1.407,2.882,3.157v5.019H43.919V120.6a1.4,1.4,0,0,0-1.475-1.587,1.5,1.5,0,0,0-1.491,1.65v4.584Z" transform="translate(-34.144 -113.327)" fill="#2c307b"/><path d="M63.141,125.269A1.786,1.786,0,0,0,65,126.776c1.359,0,2.121-.682,2.121-2.216v-.582A2.528,2.528,0,0,1,64.907,125a3.687,3.687,0,0,1-3.707-3.871,3.739,3.739,0,0,1,3.707-3.887,2.412,2.412,0,0,1,2.268,1.084v-.941h2.073v7.108a3.854,3.854,0,0,1-4.178,4.178,3.67,3.67,0,0,1-3.871-2.882Zm4.018-4.146a1.9,1.9,0,1,0-1.878,2.025A1.852,1.852,0,0,0,67.16,121.123Z" transform="translate(-47.614 -113.429)" fill="#2c307b"/><path d="M86.9,119.894V108.17h2.153v11.724Z" transform="translate(-63.069 -107.975)" fill="#2c307b"/><g transform="translate(36.759 3.711)"><path d="M121.18,122.575a1.327,1.327,0,0,0,1.459,1.216c.714,0,1.052-.371,1.052-.793,0-.355-.243-.646-.857-.777l-1.052-.243a2.44,2.44,0,0,1-2.236-2.38,2.779,2.779,0,0,1,2.978-2.607c2.268,0,3.03,1.443,3.125,2.3l-1.8.407a1.214,1.214,0,0,0-1.312-1.068c-.566,0-1.021.339-1.021.793,0,.391.291.63.73.714l1.132.243c1.571.323,2.364,1.28,2.364,2.444,0,1.3-1,2.623-3.093,2.623-2.4,0-3.221-1.555-3.321-2.46Z" transform="translate(-119.33 -116.99)" fill="#2c307b"/></g><path d="M158.526,118.461c0,.534.032,1.116.064,1.439h-2.057a5.586,5.586,0,0,1-.08-.921,2.5,2.5,0,0,1-2.236,1.116,4.191,4.191,0,0,1-.064-8.356,2.388,2.388,0,0,1,2.252.989V108.18h2.121Zm-4.046-.291a2.022,2.022,0,0,0,1.957-2.284,1.973,1.973,0,0,0-1.957-2.216,2.269,2.269,0,0,0,0,4.5Z" transform="translate(-101.213 -107.981)" fill="#2c307b"/><path d="M183.012,122.914a3.591,3.591,0,0,1-3.628,2.527,4.232,4.232,0,0,1-.2-8.451c2.46,0,3.935,1.571,3.935,4.13,0,.307-.032.63-.032.666h-5.7A1.941,1.941,0,0,0,179.4,123.6a1.759,1.759,0,0,0,1.814-1.216ZM181,120.307a1.6,1.6,0,0,0-1.782-1.571,1.724,1.724,0,0,0-1.782,1.571Z" transform="translate(-116.211 -113.279)" fill="#2c307b"/><path d="M200.786,110.884v.873h1.8V113.6h-1.8v6.119h-2.169V113.6H197.29v-1.846h1.327v-.9a2.744,2.744,0,0,1,2.9-2.962,3.055,3.055,0,0,1,1.068.163v1.814a2.431,2.431,0,0,0-.682-.08A1.01,1.01,0,0,0,200.786,110.884Z" transform="translate(-129.453 -107.806)" fill="#2c307b"/><path d="M215.037,107.68a1.327,1.327,0,1,1-1.327,1.343A1.326,1.326,0,0,1,215.037,107.68ZM213.969,119.6v-7.965h2.153V119.6Z" transform="translate(-139.327 -107.68)" fill="#2c307b"/><path d="M227.543,125.246H225.39v-7.965h2.089v.989a2.653,2.653,0,0,1,2.3-1.2c1.977,0,2.882,1.407,2.882,3.157v5.019h-2.153V120.6a1.4,1.4,0,0,0-1.475-1.587,1.5,1.5,0,0,0-1.491,1.65Z" transform="translate(-146.351 -113.327)" fill="#2c307b"/><path d="M249.757,107.68a1.327,1.327,0,1,1-1.327,1.343A1.325,1.325,0,0,1,249.757,107.68ZM248.689,119.6v-7.965h2.153V119.6Z" transform="translate(-160.206 -107.68)" fill="#2c307b"/><path d="M261.45,114.022h1.6v1.91h-1.6v3.337c0,.7.323.925.941.925a3.21,3.21,0,0,0,.666-.064v1.782a3.218,3.218,0,0,1-1.216.2,2.308,2.308,0,0,1-2.527-2.46v-3.707H257.87v-1.91h.4a1.149,1.149,0,0,0,1.232-1.264V111.65h1.941v2.372Z" transform="translate(-165.883 -110.067)" fill="#2c307b"/><path d="M275.967,107.68a1.327,1.327,0,1,1-1.327,1.343A1.326,1.326,0,0,1,275.967,107.68ZM274.9,119.6v-7.965h2.153V119.6Z" transform="translate(-175.968 -107.68)" fill="#2c307b"/><path d="M289.426,125.565h-2.153L284.02,117.6h2.364l1.977,5.342,1.894-5.342h2.268Z" transform="translate(-181.609 -113.645)" fill="#2c307b"/><path d="M314.906,121.216a4.178,4.178,0,1,1-4.178-4.226A4.09,4.09,0,0,1,314.906,121.216Zm-2.153,0a2.038,2.038,0,1,0-2.025,2.268A2.046,2.046,0,0,0,312.753,121.216Z" transform="translate(-195.157 -113.279)" fill="#2c307b"/><g transform="translate(27.746 0.925)"><path d="M99.64,112.057h1.913l.9-1.216.921,1.216h1.961L103.8,110h-2.619Z" transform="translate(-98.476 -110)" fill="#2c307b"/><path d="M104.573,121.12c0-2.559-1.475-4.13-3.935-4.13a4.232,4.232,0,0,0,.2,8.451,3.586,3.586,0,0,0,3.628-2.527l-1.8-.534a1.759,1.759,0,0,1-1.814,1.216,1.944,1.944,0,0,1-2.009-1.814h5.7C104.541,121.75,104.573,121.427,104.573,121.12Zm-5.685-.813a1.724,1.724,0,0,1,1.782-1.571,1.6,1.6,0,0,1,1.782,1.571Z" transform="translate(-96.72 -114.203)" fill="#2c307b"/></g></g></g></g></svg>