<?xml version="1.0" encoding="UTF-8"?>
<svg width="257px" height="39px" viewBox="0 0 257 39" version="1.1" xmlns="http://www.w3.org/2000/svg" xmlns:xlink="http://www.w3.org/1999/xlink">
    <!-- Generator: Sketch 53.2 (72643) - https://sketchapp.com -->
    <title>*atoms/Icons/logos/discoverycom/brasil</title>
    <desc>Created with Sketch.</desc>
    <defs>
        <path d="M160.794427,5.74358974 L165.000044,5.74358974 C165.000044,5.74358974 157.280668,26.1527269 156.275604,28.2335284 C155.352922,30.1421365 155.052226,30.5204641 153.701156,31.3904617 C152.621948,32.0884216 149.281192,31.9959415 147.860097,31.9959415 L147.860097,28.6286706 C148.675682,28.6834736 150.825861,28.7211506 151.744424,28.2420914 C152.93912,27.3591714 154.257237,23.7188196 154.257237,23.7188196 L154.306666,23.596914 L147.761238,5.74358974 L152.065867,5.74358974 L156.279723,18.9221554 L160.794427,5.74358974 Z M139.425862,8.72762153 C140.923665,6.79026742 143.367236,6.09826592 144.755444,5.84488113 L146.119447,9.29316511 C144.394185,9.56327548 141.053556,10.495844 139.855975,13.7795295 C139.535457,14.6573882 139.425862,15.7168836 139.425862,16.923783 L139.425862,23.7948718 L135.447806,23.7948718 L135.447806,5.74358974 L139.425862,5.74358974 L139.425862,8.72762153 Z M70.1160213,20.3562327 C72.031544,20.3562327 73.4369772,19.4701276 74.71389,18.1916131 L77.1642235,20.5504147 C75.4186795,22.45163 73.3706441,23.7948718 69.9128761,23.7948718 C64.6393922,23.7948718 60.7463131,19.765446 60.7463131,14.8178512 C60.7463131,9.86995667 64.643538,5.74358974 69.9460427,5.74358974 C73.3043109,5.74358974 75.3855129,6.95722707 77.0314037,8.72524195 L74.5148906,11.3790622 C73.2752902,10.1005478 71.9652109,9.21459251 69.9170219,9.21459251 C66.9610518,9.21459251 64.8133631,11.7067443 64.8133631,14.752974 C64.8133631,17.8681263 66.9942183,20.3562327 70.1160213,20.3562327 Z M131.622638,11.4898072 C131.98097,12.6139499 132.164224,13.7987478 132.164224,15.0443507 C132.164224,15.2182289 132.160059,15.4001944 132.147564,15.5862037 C132.13507,15.7722129 132.11841,15.962116 132.097432,16.1604061 L119.007132,16.1604061 C119.232034,17.5795876 119.810949,18.667487 120.743877,19.4196112 C121.676805,20.1757792 122.805481,20.5518413 124.134071,20.5518413 C125.146131,20.5518413 126.020905,20.3779631 126.766415,20.0261631 C127.511924,19.6784067 128.240774,19.1648595 128.957129,18.4855214 L131.356087,20.5518413 C130.498126,21.5346051 129.481901,22.3190788 128.299082,22.9093061 C127.120427,23.499833 125.708387,23.7948718 124.067433,23.7948718 C122.784657,23.7948718 121.589343,23.5726192 120.473161,23.1397958 C119.361145,22.7030785 118.394743,22.092483 117.570256,21.3039656 C116.749625,20.5194919 116.104072,19.573271 115.633443,18.4693467 C115.15865,17.3654224 114.925418,16.148275 114.925418,14.8177549 L114.925418,14.7490124 C114.925418,13.507603 115.137825,12.3389798 115.566806,11.2431428 C115.991621,10.1513495 116.595525,9.19704127 117.370189,8.38021814 C118.149171,7.55920156 119.061275,6.91625662 120.119149,6.44718987 C121.177022,5.97812312 122.347347,5.74358974 123.630123,5.74358974 C125.046174,5.74358974 126.287456,5.99429783 127.357824,6.49571402 C128.424028,6.9971302 129.315307,7.67646825 130.023333,8.52564081 C130.731358,9.37885706 131.264614,10.3655147 131.622638,11.4898072 Z M128.115828,13.1234535 C128.049191,12.4885959 127.903421,12.310674 127.674353,11.7526463 C127.449451,11.1946186 127.145417,10.7092274 126.766415,10.2967722 C126.383093,9.880423 125.929278,9.55692869 125.400187,9.33033291 C124.871405,9.10403666 124.271665,8.98662021 123.592639,8.98662021 C122.334852,8.98662021 121.293638,9.40731257 120.473161,10.2483978 C119.652685,11.0893332 119.152747,11.7686713 118.969494,13.1234535 L128.115828,13.1234535 Z M105.105441,18.9113635 L109.872313,5.74358974 L114.104522,5.74358974 L106.906994,23.7948718 L103.275251,23.7948718 L96.0448205,5.74358974 L100.375737,5.74358974 L105.105441,18.9113635 Z M95.3715531,11.2308165 C95.8190779,12.3146632 96.0448205,13.4751894 96.0448205,14.7206321 L96.0448205,14.7854802 C96.0448205,16.0066611 95.8151175,17.1631437 95.3557115,18.2549279 C94.8923451,19.3467122 94.2666025,20.3050561 93.462642,21.1218725 C92.6626419,21.9428822 91.7042259,22.5898655 90.5951682,23.0710593 C89.4822968,23.5522531 88.2743759,23.7948718 86.967445,23.7948718 C85.6842766,23.7948718 84.4920505,23.5603404 83.3910603,23.0912775 C82.2900701,22.6222146 81.3356145,21.9831689 80.5356144,21.1744399 C79.7316539,20.3657108 79.109725,19.4154541 78.6582398,18.3236699 C78.2067546,17.2318857 77.985119,16.0754031 77.985119,14.8500288 L77.985119,14.7854802 C77.985119,13.5398877 78.214822,12.3712742 78.674228,11.27949 C79.133634,10.1877057 79.7672975,9.23325566 80.5672976,8.41239566 C81.3672977,7.59168542 82.3217532,6.94455241 83.4227435,6.46335861 C84.5238804,5.98216482 85.7278409,5.74358974 87.0308114,5.74358974 C88.3377422,5.74358974 89.5377424,5.97812117 90.642693,6.44718403 C91.7438299,6.91624689 92.6943251,7.55933626 93.4982856,8.3800465 C94.2982857,9.20105627 94.9240283,10.1511632 95.3715531,11.2308165 Z M92.1636319,14.7854802 C92.1636319,14.0210815 92.0329389,13.297269 91.7755131,12.6219802 C91.5180873,11.9426478 91.1616516,11.3563192 90.7020989,10.8508636 C90.2426929,10.3494515 89.6961582,9.94913065 89.0664552,9.65394454 C88.4367521,9.35860867 87.7357619,9.2131872 86.9634846,9.2131872 C86.1912073,9.2131872 85.4902171,9.35860867 84.8643278,9.65394454 C84.2346247,9.94913065 83.6920504,10.3413642 83.2445256,10.834689 C82.7970008,11.3238203 82.4524463,11.9022113 82.2187829,12.5694128 C81.9811591,13.2366143 81.8663076,13.9523395 81.8663076,14.7167383 L81.8663076,14.7812868 C81.8663076,15.5253176 81.9970007,16.2331053 82.2504661,16.9082443 C82.5078919,17.5877264 82.8643275,18.1780987 83.3276939,18.6956853 C83.7870999,19.2092282 84.3336347,19.6095491 84.9634844,19.9047352 C85.5931874,20.1999213 86.2822964,20.3495362 87.0308114,20.3495362 C87.8228907,20.3495362 88.535762,20.1999213 89.1654651,19.9047352 C89.7991285,19.6095491 90.3377425,19.2132719 90.7852673,18.7117101 C91.2327921,18.2104478 91.5735329,17.6281629 91.81101,16.9609614 C92.04482,16.2937599 92.1636319,15.5901657 92.1636319,14.8500288 L92.1636319,14.7854802 Z M57.315383,14.8363724 C57.8325358,15.2233795 58.2633698,15.6920128 58.6080371,16.2418195 C58.9403948,16.7919279 59.104522,17.4640983 59.104522,18.2544077 L59.104522,18.3195878 C59.104522,19.2402575 58.9403948,20.046862 58.6080371,20.7271798 C58.2756794,21.4115715 57.8159711,21.9739012 57.2292162,22.4260885 C56.6424612,22.8782759 55.9490236,23.2163979 55.1530064,23.4486022 C54.352886,23.6808065 53.4994243,23.7948718 52.5926212,23.7948718 C51.3286893,23.7948718 50.0525999,23.5748888 48.7559946,23.1349227 C47.4593893,22.6949567 46.2571571,22.047078 45.1492981,21.1876656 L46.9423884,18.4825382 C47.8943265,19.1872986 48.8626773,19.7209612 49.851544,20.0835258 C50.8364595,20.4501642 51.7841425,20.6294096 52.6910975,20.6294096 C53.5568688,20.6294096 54.2256874,20.4584626 54.7016564,20.1161159 C55.1776255,19.7740709 55.41561,19.3217327 55.41561,18.7473326 L55.41561,18.6821524 C55.41561,18.3521779 55.3089273,18.0670147 55.099665,17.8225891 C54.8862996,17.5822373 54.5990769,17.366328 54.2338937,17.1787842 C53.8646074,16.995465 53.4460829,16.8285918 52.9701139,16.6860102 C52.4898897,16.5393548 51.9976599,16.3925486 51.4888654,16.2378966 C50.8445139,16.0627249 50.1962113,15.8508894 49.5438054,15.6105376 C48.8913996,15.3700349 48.3046446,15.0563554 47.7835406,14.6693482 C47.2624366,14.2864148 46.8357057,13.8057112 46.503348,13.2355357 C46.1668871,12.6609847 46.0026079,11.9562242 46.0026079,11.1211035 L46.0026079,11.0557724 C46.0026079,10.2208026 46.1627839,9.47922743 46.4869353,8.82757675 C46.8069834,8.17562431 47.250127,7.62566674 47.8163661,7.16125813 C48.3826051,6.70092328 49.0473205,6.34650619 49.8105122,6.10615436 C50.5738559,5.86580254 51.3862858,5.74358974 52.2520571,5.74358974 C53.3599161,5.74358974 54.4800846,5.91876141 55.6084595,6.27317851 C56.7368344,6.62352185 57.7668849,7.10829926 58.6981551,7.72343698 L57.1021695,10.5629984 C56.2567622,10.0578522 55.4074036,9.65862373 54.5416323,9.36123927 C53.6758611,9.06370393 52.883947,8.91704858 52.1494776,8.91704858 C51.3780795,8.91704858 50.7706567,9.08014985 50.3398226,9.40997351 C49.9048854,9.74009893 49.69152,10.1596962 49.69152,10.6648424 L49.69152,10.7300225 C49.69152,11.0355545 49.8023058,11.3044227 50.0238776,11.536627 C50.2414982,11.7688313 50.5367753,11.976593 50.9019585,12.163986 C51.2672936,12.3513789 51.6899213,12.5184031 52.1658903,12.6732059 C52.6417074,12.8280088 53.1342411,12.995033 53.6430356,13.1702046 C54.2872351,13.3698189 54.9273314,13.5979494 55.5715309,13.8627438 C56.2116272,14.1276891 56.7942789,14.4534389 57.315383,14.8363724 Z M37.7612384,23.7948718 L37.7612384,5.74358974 L41.0448205,5.74358974 L41.0448205,23.7948718 L37.7612384,23.7948718 Z M35.2985519,11.4567748 C35.2985519,17.9554135 30.1729563,22.974359 22.7573584,22.974359 L15.5790881,22.974359 C17.0281892,22.0336915 18.2356449,20.7769657 19.1016821,19.2974225 L22.7531948,19.2974225 C27.7080811,19.2974225 30.9473934,16.0500551 30.9473934,11.5175841 C30.9473934,6.98916717 27.7122448,3.67303264 22.7531948,3.67303264 L18.1022542,3.67303264 L18.1022542,7.05418058 C17.4195714,6.22702378 16.6241618,5.49325807 15.7206518,4.8892189 C15.1668877,4.51625511 14.5714871,4.20004669 13.9552683,3.92843176 L13.9552683,0 L22.7531948,0 C30.1729563,0 35.2985519,4.95408217 35.2985519,11.4567748 Z M13.6332983,14.8364267 C14.3411793,14.4319005 14.3333337,13.4090438 13.6193834,13.0153187 L7.29789577,9.53023758 C6.60156105,9.14627793 5.7484622,9.64964237 5.7484622,10.4444906 L5.7484622,17.5424915 C5.7484622,18.3445898 6.61532787,18.8472145 7.31181062,18.4491985 L13.6332983,14.8364267 Z M8.96915831,4.94861505 C13.9212173,4.94861505 17.9381686,8.95955074 17.9381686,13.913444 C17.9381686,18.8633422 13.9252141,22.8784208 8.96915831,22.8784208 C4.01695131,22.8742779 1.21147536e-12,18.8591993 1.21147536e-12,13.9093011 C1.21147536e-12,8.95955074 4.01695131,4.94861505 8.96915831,4.94861505 Z" id="path-1"></path>
    </defs>
    <g id="*atoms/Icons/logos/discoverycom/brasil" stroke="none" stroke-width="1" fill="none" fill-rule="evenodd">
        <g id="Group-7" transform="translate(0.000000, 4.000000)">
            <g id="*atoms/Color/Basic/-Black-#000000" transform="translate(-0.000044, 0.000000)">
                <mask id="mask-2" fill="white">
                    <use xlink:href="#path-1"></use>
                </mask>
                <use id="Mask" fill="#FFFFFF" xlink:href="#path-1"></use>
                <g id="*atoms/Color/Tu-Discovery/TDprimary-#06DFFF" mask="url(#mask-2)" fill="#06DFFF">
                    <g transform="translate(0.000044, 0.000000)" id="atoms/Color/Tu-Discovery/primary/#00FFAA">
                        <rect x="0" y="0" width="165" height="32"></rect>
                    </g>
                </g>
            </g>
        </g>
        <path d="M198.311502,30.3839089 C198.009874,30.6876315 197.607703,30.9913541 197.306075,31.2950767 C196.803361,31.7000402 196.200104,32.1050037 195.596847,32.4087263 C194.289791,33.0161716 192.982734,32.6112081 192.278935,31.3963176 C191.675678,30.3839089 191.474592,29.3715001 191.776221,28.2578505 C192.077849,26.7392374 192.681106,25.3218651 193.284363,23.9044929 C193.787077,22.993325 194.189248,22.0821572 194.691962,21.0697484 C194.893047,20.7660258 194.99359,20.3610623 195.194676,19.9560988 C195.496304,19.1461718 195.395761,18.94369 194.591419,18.7412083 C193.485448,18.5387265 193.485448,18.5387265 192.882192,19.4498944 C191.876764,20.9685075 190.871336,22.5883615 189.865908,24.1069746 C189.765365,24.3094564 189.664822,24.4106973 189.463737,24.613179 C189.262651,24.8156608 188.961023,25.0181425 188.659394,24.8156608 C188.357766,24.7144199 188.15668,24.4106973 188.15668,24.1069746 C188.15668,23.6007703 188.357766,23.1958068 188.558851,22.7908433 C189.363194,21.4747119 190.167536,20.1585805 191.072421,18.8424492 C191.977306,17.3238361 192.982734,15.8052229 193.686534,14.0841281 C193.88762,13.6791646 194.088705,13.6791646 194.390333,13.7804054 C194.792505,13.8816463 194.99359,14.1853689 195.295219,14.4890916 C195.496304,14.6915733 195.496304,14.8940551 195.395761,15.1977777 C195.295219,15.6027412 194.99359,15.9064638 194.893047,16.3114273 C194.591419,16.8176317 194.691962,17.0201134 195.295219,17.1213543 L196.803361,17.4250769 C197.909331,17.7287996 198.311502,18.6399674 197.909331,19.6523762 C197.104989,21.4747119 196.200104,23.1958068 195.496304,25.0181425 C194.893047,26.5367556 194.189248,28.0553687 193.88762,29.7764636 C193.88762,30.0801862 193.787077,30.3839089 193.988162,30.5863906 C194.289791,30.7888724 194.591419,30.5863906 194.792505,30.4851497 C195.194676,30.282668 195.596847,29.9789454 195.999018,29.5739819 C197.808788,27.852887 199.31693,26.0305513 200.724529,24.0057338 C201.629415,22.7908433 202.232671,21.373471 203.137557,20.1585805 C203.941899,19.0449309 204.846784,18.0325222 205.952755,17.2225952 C207.963611,15.7039821 210.075009,16.1089456 211.482608,18.2350039 C211.784237,18.7412083 211.784237,18.7412083 212.186408,18.2350039 C212.286951,18.0325222 212.488036,17.8300404 212.588579,17.7287996 C212.890207,17.4250769 213.292379,17.3238361 213.594007,17.6275587 C213.996178,17.9312813 214.297807,18.3362448 214.498892,18.8424492 C214.599435,19.2474127 214.498892,19.5511353 214.297807,19.9560988 C212.789665,22.4871206 211.683694,25.1193834 210.979894,27.9541279 C210.879352,28.3590914 210.879352,28.7640549 210.778809,29.2702592 L210.778809,29.8777045 C210.979894,30.5863906 211.382066,30.7888724 211.985322,30.3839089 C212.488036,30.0801862 212.890207,29.7764636 213.292379,29.3715001 C215.102149,27.6504052 216.610291,25.6255878 218.01789,23.7020111 C218.922775,22.4871206 219.727117,21.1709893 220.430917,19.753617 C221.436345,17.7287996 222.843944,16.0077047 224.8548,14.8940551 C225.960771,14.2866098 227.066741,14.5903324 227.569455,15.6027412 C227.669998,15.8052229 227.669998,15.9064638 227.770541,16.1089456 C227.770541,16.5139091 227.669998,16.7163908 227.267827,16.8176317 C224.8548,17.5263178 223.346658,19.3486535 222.039602,21.4747119 C221.536888,22.2846389 221.637431,23.1958068 221.939059,24.0057338 C222.240687,25.0181425 222.743401,25.9293104 223.145572,26.8404782 C223.246115,27.1442009 223.346658,27.04296 223.547744,26.9417191 C224.8548,26.233033 226.061313,25.423106 227.167284,24.5119381 C228.977054,23.0945659 230.183568,21.1709893 231.088453,19.0449309 C231.289539,18.5387265 231.591167,18.0325222 231.792253,17.5263178 C231.993338,17.2225952 232.194424,17.1213543 232.596595,17.1213543 C233.602023,17.3238361 234.104737,18.3362448 233.602023,19.2474127 C232.395509,21.7784345 231.188996,24.4106973 230.485196,27.1442009 C230.284111,27.852887 230.183568,28.4603322 230.083025,29.1690184 L230.083025,29.5739819 C230.183568,30.282668 230.585739,30.5863906 231.188996,30.1814271 C231.69171,29.9789454 232.093881,29.5739819 232.395509,29.2702592 C234.506908,27.2454417 236.316678,24.9169016 237.925363,22.4871206 C238.025906,22.2846389 238.025906,22.183398 238.126449,21.9809163 C239.433505,17.0201134 241.142732,12.3630332 243.455217,7.80719386 C243.857388,7.09850773 244.259559,6.28858074 244.762273,5.68113549 C245.36553,4.97244937 246.069329,4.466245 247.074757,4.466245 C247.8791,4.466245 248.482356,4.8712085 248.884528,5.47865374 C249.487784,6.49106249 249.588327,7.60471211 249.286699,8.71836173 C248.783985,10.4394566 247.979642,11.9580697 247.074757,13.4766828 C245.164444,16.8176317 242.952503,19.9560988 240.640018,22.8920841 C240.137304,23.4995294 239.835676,24.2082155 239.634591,25.0181425 C239.433505,26.5367556 239.232419,28.0553687 239.232419,29.5739819 C239.232419,29.9789454 239.332962,30.3839089 239.433505,30.6876315 C239.634591,31.1938359 239.936219,31.2950767 240.438933,31.092595 C241.142732,30.7888724 241.745989,30.282668 242.248703,29.7764636 C245.063901,27.04296 247.476928,24.0057338 249.588327,20.6647849 C249.789413,20.4623032 249.889955,20.1585805 250.292127,20.1585805 C250.593755,20.2598214 250.794841,20.4623032 250.895383,20.7660258 C251.096469,21.2722302 250.995926,21.7784345 250.694298,22.2846389 C250.091041,23.2970476 249.487784,24.3094564 248.783985,25.2206243 C247.1753,27.3466826 245.566615,29.472741 243.656302,31.3963176 C243.354674,31.7000402 243.053045,32.0037628 242.650874,32.3074855 C241.142732,33.7248577 239.131877,33.2186533 237.925363,31.7000402 C237.322106,30.8901132 237.121021,29.9789454 237.121021,28.9665366 C237.121021,28.2578505 237.020478,27.4479235 237.121021,26.6379965 C237.020478,26.7392374 236.919935,26.9417191 236.819392,27.04296 C235.813964,28.4603322 234.707994,29.7764636 233.400937,30.8901132 C233.199852,31.092595 232.998766,31.1938359 232.797681,31.2950767 C231.088453,32.4087263 229.17814,31.902522 228.273255,29.9789454 C227.770541,28.8652957 227.669998,27.7516461 227.971626,26.5367556 C227.971626,26.3342739 228.072169,26.1317921 228.072169,25.9293104 C227.971626,25.8280695 227.871084,25.9293104 227.770541,26.0305513 C226.564027,26.9417191 225.357514,27.7516461 224.050458,28.4603322 C223.748829,28.662814 223.547744,28.8652957 223.648286,29.1690184 C223.748829,31.8012811 221.838516,33.6236168 219.425489,33.9273395 C218.822232,34.0285803 218.218976,34.0285803 217.615719,33.9273395 C216.308662,33.7248577 215.303235,32.3074855 215.604863,30.9913541 C215.705406,30.5863906 215.906491,30.3839089 216.308662,30.1814271 C217.515176,29.472741 218.721689,28.9665366 220.028746,28.3590914 C220.53146,28.1566096 220.933631,27.9541279 221.436345,27.7516461 C221.737973,27.6504052 221.737973,27.4479235 221.637431,27.2454417 C221.335802,26.4355148 220.933631,25.6255878 220.632003,24.8156608 C220.53146,24.5119381 220.330374,24.1069746 220.229831,23.803252 C219.727117,24.613179 219.224403,25.3218651 218.721689,26.0305513 C217.816804,27.2454417 217.012462,28.4603322 215.906491,29.5739819 C215.102149,30.4851497 214.096721,31.2950767 212.890207,31.8012811 C211.18098,32.4087263 209.672838,31.7000402 209.069581,29.9789454 C208.66741,28.7640549 208.767953,27.5491644 209.069581,26.3342739 C209.170124,25.8280695 209.37121,25.3218651 209.471753,24.8156608 C208.767953,25.7268286 208.064153,26.6379965 207.259811,27.4479235 C205.852212,29.0677775 204.34407,30.5863906 202.735385,31.902522 L201.8305,32.5099672 C201.026158,33.0161716 200.121273,32.8136898 199.518016,32.1050037 C199.015302,31.5987993 198.814216,30.9913541 198.613131,30.282668 C198.412045,30.5863906 198.412045,30.4851497 198.311502,30.3839089 Z M200.221816,30.7888724 C200.221816,31.1938359 200.422901,31.1938359 200.623987,31.092595 C201.227243,30.7888724 201.729957,30.282668 202.232671,29.7764636 C204.947327,27.1442009 207.360354,24.2082155 209.773381,21.2722302 C210.678266,20.1585805 210.678266,20.1585805 209.773381,19.0449309 C209.270667,18.4374857 208.66741,18.3362448 207.963611,18.7412083 C207.460897,19.0449309 206.958183,19.4498944 206.556011,19.9560988 C203.841356,22.993325 201.931043,26.5367556 200.422901,30.282668 C200.322358,30.3839089 200.322358,30.6876315 200.221816,30.7888724 Z M241.444361,18.7412083 C242.85196,16.4126682 244.460645,14.0841281 245.767701,11.6543471 C246.572043,10.2369748 247.275843,8.71836173 247.678014,7.09850773 C247.778557,6.89602599 247.778557,6.59230336 247.577471,6.38982161 C247.275843,6.18733986 247.074757,6.38982161 246.873672,6.59230336 C246.572043,6.89602599 246.270415,7.30098948 246.069329,7.70595298 C244.963359,9.52828872 244.259559,11.4518653 243.455217,13.3754419 C242.550332,15.1977777 241.846532,16.9188726 241.444361,18.7412083 Z M221.737973,29.9789454 C220.430917,30.5863906 219.224403,31.092595 218.01789,31.7000402 C217.816804,31.8012811 217.615719,32.0037628 217.414633,32.1050037 C217.31409,32.2062446 217.213548,32.3074855 217.213548,32.4087263 C217.31409,32.6112081 217.414633,32.5099672 217.615719,32.5099672 C218.822232,32.4087263 220.028746,32.1050037 221.034174,31.2950767 C221.335802,30.9913541 221.536888,30.5863906 221.737973,29.9789454 Z M170.360606,19.753617 C172.069833,19.3486535 173.577975,18.7412083 175.086117,18.0325222 C178.906743,16.3114273 182.325198,14.0841281 185.442025,11.3506245 C186.547996,10.3382157 187.452881,9.32580697 188.056138,7.90843473 C188.056138,7.80719386 188.15668,7.70595298 188.15668,7.60471211 C188.558851,6.38982161 188.257223,5.47865374 187.151252,4.8712085 C186.045282,4.26376325 184.738225,3.85879975 183.531712,3.656318 C181.219228,3.25135451 178.906743,3.04887276 176.493716,3.15011363 C172.974719,3.35259538 169.556264,3.85879975 166.338894,5.27617199 C165.83618,5.47865374 165.333466,5.78237637 164.931295,6.08609899 C164.730209,6.28858074 164.529124,6.38982161 164.428581,6.69354424 C164.328038,6.99726686 164.126953,6.99726686 163.925867,6.89602599 C163.222068,6.49106249 162.719354,5.98485812 162.618811,5.17493112 C162.518268,4.76996762 162.819896,4.56748587 163.121525,4.466245 C164.126953,3.75755888 165.232923,3.25135451 166.439437,2.84639101 C169.455721,1.73274139 172.572547,1.12529614 175.789917,1.02405527 C178.906743,0.922814393 181.923027,1.12529614 184.838768,1.93522314 C186.045282,2.23894576 187.251795,2.74515013 188.357766,3.55507713 C190.368622,5.07369025 190.770793,7.60471211 189.765365,9.6295296 C188.961023,11.3506245 187.653966,12.6667558 186.246367,13.9828872 C183.230083,16.6151499 179.811628,18.5387265 176.192088,20.1585805 C176.091545,20.2598214 175.991002,20.2598214 175.689374,20.3610623 C176.493716,20.4623032 177.298059,20.563544 178.001858,20.6647849 C179.912171,21.0697484 181.721942,21.4747119 183.330626,22.4871206 C184.637683,23.1958068 185.64311,24.2082155 186.045282,25.6255878 C186.447453,27.04296 185.944739,28.3590914 185.039854,29.472741 C183.83334,30.9913541 182.224655,32.0037628 180.515428,32.8136898 C177.499144,34.2310621 174.382318,35.3447117 171.164948,35.8509161 C170.260063,35.9521569 169.355178,36.0533978 168.550836,35.9521569 C167.847036,35.8509161 167.344322,35.5471935 166.942151,34.9397482 C166.640523,34.5347847 166.841608,34.0285803 167.344322,34.0285803 C168.852464,34.1298212 170.360606,33.7248577 171.868748,33.3198942 C174.985574,32.6112081 177.901315,31.4975585 180.716514,29.9789454 C181.822484,29.3715001 182.827912,28.5615731 183.632255,27.4479235 C184.637683,26.0305513 184.53714,25.1193834 183.129541,24.2082155 C182.224655,23.6007703 181.219228,23.2970476 180.113257,23.0945659 C177.901315,22.5883615 175.689374,22.183398 173.37689,22.183398 C172.069833,22.183398 170.762777,22.3858798 169.455721,22.8920841 C169.254635,22.993325 169.05355,23.0945659 168.953007,23.2970476 C167.444865,26.9417191 166.037266,30.5863906 164.830752,34.4335438 C164.629667,35.0409891 164.529124,35.6484343 164.428581,36.2558796 C164.328038,36.9645657 163.825324,37.1670474 163.222068,36.8633248 C162.719354,36.6608431 162.317182,36.3571204 162.116097,35.8509161 C161.915011,35.5471935 162.015554,35.2434708 162.116097,34.9397482 C164.428581,28.8652957 166.741065,22.8920841 169.254635,16.9188726 C170.662234,13.4766828 172.069833,10.0344931 173.37689,6.59230336 C173.678518,5.88361724 174.080689,5.78237637 174.683946,6.28858074 C175.488288,6.99726686 175.689374,7.80719386 175.287203,8.71836173 C173.879604,11.8568288 172.472005,14.8940551 171.164948,18.0325222 C170.762777,18.7412083 170.561691,19.2474127 170.360606,19.753617 Z M234.607451,9.83201134 C235.31125,9.83201134 236.01505,10.0344931 236.618307,10.5406975 C236.819392,10.7431792 237.020478,10.945661 237.121021,11.1481427 C237.422649,11.6543471 237.221563,12.0593106 236.618307,12.2617923 C235.612879,12.565515 234.607451,12.3630332 233.602023,11.9580697 C233.199852,11.755588 232.998766,11.2493836 232.998766,10.7431792 C233.099309,10.3382157 233.300395,10.0344931 233.803109,9.93325222 C234.104737,9.93325222 234.305822,9.83201134 234.607451,9.83201134 Z" id="Combined-Shape" fill="#00FFAA" fill-rule="nonzero"></path>
    </g>
</svg>