<?xml version="1.0" encoding="UTF-8"?> <!-- Creator: CorelDRAW 2018 (64 Bit Versão de avaliação) --> <svg xmlns="http://www.w3.org/2000/svg" xmlns:xlink="http://www.w3.org/1999/xlink" xml:space="preserve" width="295.402mm" height="67.4093mm" style="shape-rendering:geometricPrecision; text-rendering:geometricPrecision; image-rendering:optimizeQuality; fill-rule:evenodd; clip-rule:evenodd" viewBox="0 0 38924.29 8882.33"> <defs> <style type="text/css"> <![CDATA[ .str0 {stroke:#F9A331;stroke-width:30.36;stroke-linecap:round;stroke-miterlimit:4} .fil3 {fill:none;fill-rule:nonzero} .fil2 {fill:#F3794E;fill-rule:nonzero} .fil0 {fill:white;fill-rule:nonzero} .fil1 {fill:#F9A331;fill-rule:nonzero} ]]> </style> </defs> <g id="Camada_x0020_1"> <metadata id="CorelCorpID_0Corel-Layer"></metadata> <path class="fil0" d="M5626.39 4033.58c33.71,122.14 50.65,261.29 50.65,417.04l0 751.07c468.68,-70.32 929.66,-129.76 1384.82,-183.99 6.22,-0.58 12.37,-1.49 18.51,-1.74l0 -565c0,-147.63 16.93,-287.03 50.65,-417.39l-1504.64 0zm-1220.27 -4033.58c-1247.49,0 -2248.32,330.95 -3002.54,992.59 -935.81,813.77 -1403.58,1972.75 -1403.58,3477.14 0,847.05 149.61,1595.38 448.68,2244.15 341.58,741.94 853.52,1304.38 1536.26,1688.04 569.17,320.41 1302.29,480.41 2200.08,480.41 497.34,0 922.95,-35.79 1277.06,-107.52 358.18,-71.73 924.93,-233.73 1700.57,-486.8 -50.64,-151.77 -77.87,-324.56 -82.28,-518.17l0 -2097.79c-439.38,63.85 -891.89,157.92 -1363.24,292.01 -13.12,3.82 -26.91,7.97 -40.1,12.04l0 1844.13c-425.86,240.2 -870.47,360.25 -1333.85,360.25 -796.73,0 -1439.37,-267.43 -1928.24,-802.87 -22.51,-26.33 -45.67,-52.98 -68.49,-79.38 -535.45,-632.35 -804.04,-1568.15 -804.04,-2809.5 0,-628.03 73.8,-1201.26 221.43,-1719.68 118.06,-429.92 339.17,-823.89 663.72,-1182.4 518.42,-572.98 1199.17,-859.43 2042.15,-859.43 775.32,0 1559.1,269.75 2351.44,809.27l0 -1068.49c-851.2,-311.93 -1656.08,-468.02 -2415.04,-468.02z"></path> <path class="fil0" d="M8640.22 5556.73c-462.79,3.82 -935.23,30.71 -1423.85,95.48 -5.81,0.91 -11.7,1.74 -17.51,2.33l0 2690.59c0,147.38 -17.02,284.13 -50.73,410.67l4469.73 0 0 -758.64c-181.25,42.52 -341.49,63.27 -480.65,63.27l-2496.99 0 0 -2503.71zm-1498.25 -5430.2c37.78,105.2 56.88,244.61 56.88,417.39l0 4457.45c478.91,-55.96 952.49,-106.03 1422.6,-155.84 6.48,-0.59 12.62,-1.17 18.76,-1.75l0 -4078.42 2572.87 0c139.16,0 274.15,20.85 404.76,63.02l0 -701.84 -4475.88 0z"></path> <path class="fil1" d="M3490.75 5768.12c752.72,-172.87 1478.56,-304.05 2186.2,-410.67 474.84,-71.48 941.37,-132.43 1403.02,-186.9 37.18,-4.4 74.13,-8.8 111,-13.19 486.55,-56.55 967.78,-107.19 1446.69,-157.84 379.02,-40.19 756.88,-79.96 1134.66,-123.04 1262.18,-143.56 2526.95,-319.83 3855.57,-640.31 0,0 -970.1,1470.67 -975.42,1429.41 -1344.72,-72.08 -2631.15,-272.42 -4012.17,-261.87 -468.68,3.49 -947.84,31.06 -1443.77,96.64 -39.27,5.32 -78.45,10.55 -117.73,16.44 -452.25,64.43 -918.87,161.07 -1403.91,299.32 -813.35,231.4 -1678.91,580.28 -2617.96,1092.23 -135,49.48 -393.38,174.6 -393.38,174.6l827.21 -1314.83z"></path> <polygon class="fil2" points="8778.05,3958.6 9780.12,3958.6 9780.12,4721.05 8778.05,4829.98 "></polygon> <polygon class="fil2" points="9907.4,3324.18 10794.55,3324.18 10793.72,4595.34 9907.4,4705.78 "></polygon> <polygon class="fil2" points="10918.35,4578.41 11839.87,4438.75 11839.87,2660.54 10918.35,2660.54 "></polygon> <g id="_2024868277536"> <path class="fil0" d="M18272.39 1264.93l0 469.93c-348.8,-237.38 -694.36,-356.85 -1035.19,-356.85 -371.39,0 -671.79,125.96 -899.54,379.53 -142.06,156.67 -238.95,331.03 -290.68,519.99 -66.17,227.67 -98.47,479.66 -98.47,755.8 0,570.08 127.54,993.18 384.34,1271 214.79,235.72 497.42,353.61 847.88,353.61 205.08,0 400.44,-53.3 587.84,-158.25l0 -1482.54c0,-69.41 -8.14,-130.78 -22.66,-184.08l662.14 0c-14.53,58.12 -22.58,119.47 -22.58,184.08l0 1459.95c1.58,85.61 14.53,163.08 37.12,229.33 -340.75,111.42 -589.42,182.5 -746.09,213.13 -156.67,30.73 -345.56,46.83 -565.25,46.83 -395.63,0 -717.02,-69.41 -967.36,-209.89 -300.4,-169.62 -526.49,-416.73 -676.68,-742.94 -130.78,-285.78 -197.03,-615.23 -197.03,-988.28 0,-662.14 205.16,-1172.52 616.99,-1529.37 332.61,-292.34 773.57,-437.64 1322.63,-437.64 334.28,0 687.97,69.4 1062.6,206.65zm240.95 681.58l595.89 0 0 377.86c53.3,-153.43 135.67,-263.19 243.94,-329.46 108.18,-66.17 274.48,-104.94 495.76,-117.89l0 455.4c-43.59,-1.57 -74.32,-3.23 -92.08,-3.23 -426.35,0 -639.48,232.56 -639.48,699.26l0 1698.99c0,66.17 8.05,127.54 22.57,184.08l-626.61 0c14.53,-59.78 22.58,-121.13 22.58,-184.08l0 -2598.53c0,-66.17 -8.05,-127.52 -22.58,-182.41zm3109.15 2965.01l0 -405.34c-104.95,143.72 -206.74,247.09 -305.21,310.02 -156.67,98.56 -352.12,148.62 -587.84,148.62 -316.58,0 -560.43,-90.42 -731.56,-269.67 -140.57,-148.62 -211.64,-363.41 -211.64,-642.8l0 -1925c0,-63.02 -8.05,-124.38 -22.58,-180.84l626.62 0c-14.53,51.64 -22.58,111.42 -22.58,180.84l0 1860.41c0,159.91 38.78,285.86 114.66,381.18 100.13,121.05 250.33,180.84 450.51,180.84 201.92,0 366.66,-58.12 490.94,-174.45 124.38,-114.66 187.4,-266.43 187.4,-452.17l0 -1795.8c0,-66.17 -8.05,-125.96 -22.66,-180.84l626.61 0c-14.52,48.4 -22.58,108.18 -22.58,180.84l0 2600.1c0,59.7 8.06,121.05 22.58,184.08l-592.65 0zm1324.55 -334.27l0 1041.58c0,66.25 8.05,126.04 22.66,179.26l-626.62 0c14.53,-59.69 22.58,-119.47 22.58,-179.26l0 -3489.92c0,-59.69 -8.05,-121.05 -22.58,-182.41l595.89 0 0 423.1c216.37,-327.88 503.9,-492.6 864,-492.6 306.87,0 557.2,116.32 752.56,347.22 114.66,137.25 198.69,298.73 251.91,484.47 53.3,187.4 80.79,411.83 80.79,675.1 0,520.01 -111.42,918.88 -332.7,1196.68 -96.89,117.91 -219.6,211.57 -366.56,280.97 -146.96,69.41 -301.97,103.37 -463.54,103.37 -311.7,0 -570.08,-129.18 -778.39,-387.57zm692.86 -2330.43c-105.02,0 -205.16,25.91 -300.39,75.98 -96.89,51.64 -174.45,121.05 -230.99,206.65 -66.17,98.55 -113,216.45 -138.82,350.46 -25.91,135.67 -38.78,326.22 -38.78,573.31 0,256.81 16.12,455.41 48.41,597.55 32.3,142.06 88.84,268.11 171.21,376.29 114.65,148.54 264.85,222.84 452.17,222.84 219.6,0 387.57,-104.94 503.89,-316.5 114.66,-209.97 172.79,-513.6 172.79,-910.89 0,-402.11 -54.88,-702.5 -166.3,-901.1 -46.83,-80.79 -111.44,-145.38 -195.45,-195.45 -85.61,-50.07 -177.6,-75.88 -277.74,-79.13zm2495.42 -369.8c440.87,0 783.28,148.62 1027.14,444.11 230.9,279.4 345.56,645.96 345.56,1101.38 0,486.13 -132.43,870.47 -395.63,1149.85 -243.85,261.62 -568.5,392.47 -970.6,392.47 -432.83,0 -767.1,-143.72 -1004.55,-429.59 -243.86,-292.34 -366.58,-678.26 -366.58,-1156.32 0,-437.64 119.49,-797.73 360.19,-1077.13 240.61,-277.8 574.89,-419.96 1004.47,-424.76zm3.23 247.09c-103.37,0 -203.5,27.49 -300.39,82.37 -96.9,56.54 -174.45,130.84 -230.91,226.09 -150.19,243.85 -226.17,568.48 -226.17,977.07 0,421.46 75.98,754.14 229.33,1001.23 56.54,92.08 134.09,166.4 229.33,221.28 95.31,56.54 195.44,83.94 298.81,83.94 103.37,0 203.5,-27.39 298.74,-83.94 95.31,-54.88 172.77,-129.2 229.31,-221.28 153.44,-247.09 229.33,-576.55 229.33,-989.94 0,-419.88 -75.88,-750.99 -229.33,-993.18 -124.28,-198.68 -300.39,-300.39 -528.06,-303.63zm1421.53 -1009.38l1970.25 0 0 308.45c-58.2,-17.68 -117.89,-27.39 -179.26,-27.39l-1132.09 0 0 1445.34 1101.38 0c79.13,0 150.19,-8.05 209.97,-24.25l0 308.53c-50.06,-11.37 -117.89,-16.18 -203.5,-16.18l-1107.85 0 0 1497.07 1099.79 0c61.35,0 132.43,-9.71 211.55,-29.05l0 334.27 -1967.02 0c14.53,-56.54 22.58,-116.25 22.58,-180.84l0 -3433.46c0,-75.88 -8.05,-135.67 -25.81,-182.5zm2136.89 1106.26l-439.31 0 0 -274.48 439.31 0 0 -573.31 592.65 -64.68c-8.05,109.84 -11.29,182.5 -11.29,218.04l0 419.96 478 0 0 274.48 -478 0 0 2144.7c0,176.03 72.64,264.87 219.6,264.87 69.49,0 158.34,-29.15 266.53,-88.84l0 305.21c-161.49,79.13 -327.88,117.89 -500.66,117.89 -195.45,0 -337.51,-46.83 -429.59,-142.14 -92.08,-95.24 -137.24,-240.62 -137.24,-439.22l0 -2162.47zm971.18 2690.53c14.52,-56.54 22.58,-117.91 22.58,-184.08l0 -3727.38c0,-69.4 -8.06,-130.77 -22.58,-184.07l626.61 0c-14.52,53.3 -22.66,114.66 -22.66,184.07l0 1329.12c124.38,-159.83 255.23,-276.16 394.05,-347.23 137.33,-69.4 303.63,-104.94 499.08,-104.94 300.31,0 532.88,74.3 697.6,222.84 163.15,150.2 245.52,360.17 245.52,633.09l0 1994.49c0,62.95 6.47,124.3 21,184.08l-625.04 0c14.53,-51.64 22.66,-113.08 22.66,-184.08l0 -1802.29c0,-218.04 -45.25,-379.52 -137.33,-481.31 -92,-101.71 -235.8,-153.36 -431.17,-153.36 -227.75,0 -398.86,62.95 -511.94,188.89 -116.25,134.1 -174.45,300.4 -174.45,499.08l0 1748.99c0,66.17 8.14,127.54 22.66,184.08l-626.61 0zm3839.05 -3034.51c440.88,0 783.29,148.62 1027.14,444.11 230.9,279.4 345.56,645.96 345.56,1101.38 0,486.13 -132.43,870.47 -395.63,1149.85 -243.85,261.62 -568.48,392.47 -970.6,392.47 -432.82,0 -767.1,-143.72 -1004.55,-429.59 -243.85,-292.34 -366.56,-678.26 -366.56,-1156.32 0,-437.64 119.47,-797.73 360.17,-1077.13 240.62,-277.8 574.89,-419.96 1004.47,-424.76zm3.24 247.09c-103.37,0 -203.5,27.49 -300.4,82.37 -96.89,56.54 -174.45,130.84 -230.9,226.09 -150.2,243.85 -226.18,568.48 -226.18,977.07 0,421.46 75.98,754.14 229.33,1001.23 56.54,92.08 134.09,166.4 229.33,221.28 95.32,56.54 195.45,83.94 298.82,83.94 103.36,0 203.5,-27.39 298.73,-83.94 95.32,-54.88 172.79,-129.2 229.33,-221.28 153.43,-247.09 229.31,-576.55 229.31,-989.94 0,-419.88 -75.88,-750.99 -229.31,-993.18 -124.3,-198.68 -300.4,-300.39 -528.06,-303.63zm1156.65 2587.16l100.14 -403.77c169.53,137.33 316.49,234.23 442.45,287.53 125.96,54.88 264.87,82.37 415.07,82.37 185.73,0 329.44,-51.73 431.16,-155.1 95.32,-98.47 142.15,-211.55 142.15,-339.08 0,-125.96 -45.17,-226.09 -134.01,-300.4 -90.51,-72.64 -285.87,-169.54 -586.26,-287.44 -295.5,-116.32 -492.53,-247.09 -592.66,-392.48 -92.08,-134.01 -138.91,-284.2 -138.91,-450.59 0,-308.44 132.44,-544.16 397.29,-705.73 185.74,-113 405.34,-169.54 658.91,-169.54 282.63,0 576.55,66.25 885,197.02l-96.9 366.58c-263.28,-188.89 -507.13,-282.55 -729.98,-282.55 -159.91,0 -289.11,41.93 -389.24,124.3 -108.18,87.26 -161.49,197.02 -161.49,331.12 0,111.42 40.44,200.26 119.57,266.43 79.13,66.17 250.25,146.96 510.29,245.51 308.44,117.83 521.67,242.2 642.72,373.05 119.55,130.78 179.26,305.21 179.26,520.01 0,308.45 -117.83,550.64 -352.04,726.75 -195.37,146.96 -456.98,219.6 -788.1,219.6 -321.33,0 -639.48,-84.01 -954.42,-253.56z"></path> </g> <path class="fil1" d="M14641.67 6239.8c8280.63,-120.73 16134.01,-287.94 24000,-782.95l-497.42 365.23c-7746.11,226.76 -15704.59,54.22 -23219.71,727.58 -205.32,19.92 -409.98,47.49 -615.64,65.01 -65.01,5.89 -130.61,2.65 -195.37,9.13l528.15 -384.01z"></path> <path class="fil3 str0" d="M14641.67 6239.8c8280.63,-120.73 16134.01,-287.94 24000,-782.95l-497.42 365.23c-7746.11,226.76 -15704.59,54.22 -23219.71,727.58 -205.32,19.92 -409.98,47.49 -615.64,65.01 -65.01,5.89 -130.61,2.65 -195.37,9.13l528.15 -384.01z"></path> <g id="_2024868277376"> <path class="fil0" d="M14639.58 7177.02c163.73,0 293.59,44.92 389.4,135.01 105.28,99.63 158.17,245.01 158.17,435.23 0,187.48 -50.07,331.45 -150.61,431 -94.91,93.99 -228,141.15 -399.37,141.15 -178.93,0 -313.92,-50.48 -405.01,-151.03 -92.99,-102.87 -139.73,-246.42 -139.73,-430.07 0,-116.57 22.16,-218.04 66.58,-303.97 86.85,-169.45 246.84,-254.89 480.57,-257.3zm0.91 86.44c-122.29,0 -212.88,46.24 -271.01,138.32 -52.39,84.03 -78.78,196.86 -78.78,338.01 0,328.96 117.06,493.77 351.2,493.77 117.08,0 205.83,-46.33 266.28,-138.33 28.73,-43.92 49.57,-92.99 62.27,-147.79 12.78,-54.3 18.84,-119.89 18.84,-196.36 0,-321.99 -116.07,-484.3 -348.8,-487.62zm717.54 173.19l174.18 0 0 110.5c15.54,-44.83 39.61,-76.97 71.25,-96.31 31.62,-19.34 80.29,-30.71 144.96,-34.46l0 133.1c-12.78,-0.42 -21.74,-0.91 -26.89,-0.91 -124.63,0 -186.98,67.99 -186.98,204.41l0 496.59c0,19.34 2.4,37.28 6.64,53.8l-183.16 0c4.23,-17.43 6.55,-35.37 6.55,-53.8l0 -759.55c0,-19.34 -2.32,-37.28 -6.55,-53.38zm522.25 948.84l-42.02 -125.05 185.99 -136c-50.98,-28.8 -89.67,-58.53 -116.07,-90.17 -47.74,-56.12 -71.83,-133.1 -71.83,-230.82 0,-126.04 36.37,-222.84 109.1,-291.26 67.5,-63.68 158.08,-95.32 270.93,-95.32 18.42,0 47.74,0.91 88.26,3.24 25.08,-9.88 45.33,-27.82 60.02,-52.81 14.61,-25.08 23.09,-55.71 25.5,-92.57l161.9 0c-5.23,39.19 -17.02,69.9 -34.46,92.57 -17.53,23.09 -50.98,49.07 -99.63,78.8 50.48,24.57 89.67,54.8 118.47,90.67 54.3,67.5 81.71,152.93 81.71,255.81 0,107.18 -31.23,194.03 -93,259.62 -48.15,51.48 -115.24,85.02 -200.67,100.55 -17.45,2.82 -53.31,7.14 -107.61,12.28 -33.53,3.32 -62.76,12.79 -87.84,27.91l-157.59 96.72c150.03,-35.87 263.36,-53.8 339.84,-53.8 89.25,0 166.13,13.7 231.8,40.6 33.05,13.7 58.95,32.55 78.3,57.62 18.93,24.5 28.4,51.9 28.4,81.62 0,57.13 -31.22,101.55 -93.49,133.1 -62.35,31.64 -149.61,47.24 -262.03,47.24 -117.08,0 -258.22,-24.98 -423.86,-74.55l0 -32.63c128.86,34.04 241.2,50.98 337.01,50.98 67.08,0 121.3,-9.38 163.31,-28.32 42.02,-18.84 63.27,-44.84 63.27,-77.89 0,-31.12 -22.18,-55.71 -67,-73.14 -44.84,-17.93 -104.78,-26.89 -180.84,-26.89 -89.17,0 -191.13,17.43 -305.87,51.89zm347.47 -880.85c-71.73,0 -124.63,26.91 -158.67,80.71 -32.55,51.48 -49.07,118.49 -49.07,200.68 0,93.41 17.93,165.22 53.39,215.7 35.37,50.48 86.35,75.56 152.44,75.56 70.32,0 122.71,-26.49 156.26,-78.88 34.46,-55.71 51.89,-126.04 51.89,-211.47 0,-88.76 -17.93,-157.67 -53.8,-206.74 -36.37,-49.07 -86.85,-74.15 -152.44,-75.56zm987.45 682.58c-34.96,41.1 -66.6,70.4 -95.32,86.85 -50.98,29.81 -109.09,44.92 -174.18,44.92 -66.6,0 -119.99,-19.36 -160.99,-58.54 -49.57,-47.24 -74.57,-110.5 -74.57,-189.8 0,-93.91 35.38,-164.72 106.61,-211.47 31.64,-20.34 61.44,-35.87 89.26,-46.74 27.8,-10.38 90.66,-30.65 189.3,-60.45 41.1,-12.7 70.82,-27.82 88.26,-46.24 17.43,-17.93 25.98,-42.52 25.98,-74.07 0,-36.87 -14.61,-66.6 -43.92,-89.76 -29.23,-23.07 -67.5,-34.44 -114.74,-34.44 -40.52,0 -76.89,6.64 -108.52,19.34 -31.62,12.78 -70.81,36.86 -116.65,72.23l-27.8 -110.43c59.03,-27.9 110.01,-46.74 152.93,-57.12 43.01,-9.96 92.08,-15.11 147.79,-15.11 89.67,0 159.08,17.43 207.65,52.39 48.66,34.96 73.24,84.53 73.24,148.21l0 515.01c0,49.57 16.93,74.57 50.98,74.57 13.61,0 32.55,-8.97 57.12,-26.91l0 95.9c-44.92,28.73 -87.85,43.43 -128.45,43.43 -42.51,0 -74.55,-9.97 -95.81,-29.32 -21.25,-19.34 -37.29,-53.8 -48.16,-102.45zm-5.65 -401.19c-21.74,11.79 -37.78,20.25 -47.65,24.5 -9.96,4.31 -52.89,20.75 -128.95,49.56 -58.95,22.26 -100.05,50.07 -122.71,83.12 -23.09,33.53 -34.96,70.32 -34.96,110.42 0,46.33 12.79,83.12 38.78,110.93 25.48,27.9 59.44,42.01 102.37,42.01 66.6,0 118.99,-27.32 157.25,-82.12 24.09,-34.46 35.87,-72.23 35.87,-112.33l0 -226.09zm390.9 -349.38l173.19 0 0 120.88c26,-40.6 52.39,-70.32 78.88,-89.26 50.07,-34.46 113.25,-51.89 189.72,-51.89 98.72,0 173.29,30.23 224.27,90.17 32.55,38.2 49.07,92.08 49.07,160.99l0 582.03c0,17.93 1.91,35.87 6.14,53.8l-182.67 0c4.24,-13.7 6.65,-31.64 6.65,-53.8l0 -557.03c0,-49.07 -14.2,-87.35 -43.01,-114.74 -28.82,-26.91 -69.84,-40.61 -123.22,-40.61 -66.09,0 -116.07,18.43 -149.62,55.3 -35.37,39.19 -52.89,89.67 -52.89,150.53l0 506.55c0,19.34 2.41,37.28 6.64,53.8l-183.16 0c4.24,-15.61 6.56,-33.55 6.56,-53.8l0 -760.05c0,-18.42 -2.32,-36.35 -6.56,-52.88zm1026.23 -234.14c33.55,0 59.53,7.13 77.87,20.83 18.43,13.61 27.91,32.55 27.91,56.13 0,24.98 -9.47,44.83 -27.91,59.03 -18.34,14.61 -43.84,21.66 -75.96,21.66 -72.23,0 -108.1,-26.39 -108.1,-78.78 0,-24.09 9.46,-42.93 28.8,-57.62 19.34,-14.13 44.84,-21.25 77.39,-21.25zm-93.91 234.14l182.67 0c-4.24,16.52 -6.56,34.46 -6.56,53.38l0 759.55c0,18.43 2.32,36.37 6.56,53.8l-182.67 0c4.24,-16.52 6.15,-34.46 6.15,-53.8l0 -759.55c0,-19.84 -1.91,-37.78 -6.15,-53.38zm331.45 866.73l0 -87.85 518.27 -694.36 -445.61 0c-21.68,0 -43.92,2.41 -66.6,7.06l0 -91.58 711.89 0 0 86.93 -515.93 693.45 452.67 0c20.83,0 42.01,-1.91 63.26,-6.14l0 92.49 -717.95 0zm1297.16 -116.15c-34.96,41.1 -66.6,70.4 -95.32,86.85 -50.98,29.81 -109.1,44.92 -174.2,44.92 -66.58,0 -119.97,-19.36 -160.98,-58.54 -49.57,-47.24 -74.57,-110.5 -74.57,-189.8 0,-93.91 35.37,-164.72 106.61,-211.47 31.62,-20.34 61.44,-35.87 89.25,-46.74 27.82,-10.38 90.67,-30.65 189.31,-60.45 41.1,-12.7 70.82,-27.82 88.26,-46.24 17.43,-17.93 25.98,-42.52 25.98,-74.07 0,-36.87 -14.61,-66.6 -43.92,-89.76 -29.23,-23.07 -67.5,-34.44 -114.74,-34.44 -40.52,0 -76.89,6.64 -108.52,19.34 -31.62,12.78 -70.82,36.86 -116.65,72.23l-27.82 -110.43c59.03,-27.9 110.01,-46.74 152.94,-57.12 43.01,-9.96 92.08,-15.11 147.79,-15.11 89.67,0 159.08,17.43 207.65,52.39 48.66,34.96 73.24,84.53 73.24,148.21l0 515.01c0,49.57 16.93,74.57 50.98,74.57 13.61,0 32.55,-8.97 57.12,-26.91l0 95.9c-44.92,28.73 -87.85,43.43 -128.45,43.43 -42.51,0 -74.55,-9.97 -95.82,-29.32 -21.25,-19.34 -37.28,-53.8 -48.15,-102.45zm-5.65 -401.19c-21.75,11.79 -37.78,20.25 -47.66,24.5 -9.96,4.31 -52.88,20.75 -128.93,49.56 -58.95,22.26 -100.05,50.07 -122.71,83.12 -23.09,33.53 -34.96,70.32 -34.96,110.42 0,46.33 12.78,83.12 38.78,110.93 25.48,27.9 59.44,42.01 102.37,42.01 66.58,0 118.97,-27.32 157.25,-82.12 24.09,-34.46 35.87,-72.23 35.87,-112.33l0 -226.09zm990.36 471.09c-65.59,27.82 -111.34,44.84 -138.24,51.89 -26.99,6.65 -62.85,9.97 -107.19,9.97 -122.71,0 -217.61,-37.78 -284.62,-113.83 -71.33,-80.71 -107.19,-189.72 -107.19,-326.14 0,-156.26 45.33,-276.14 135.5,-360.17 74.07,-68.51 171.78,-102.46 292.18,-102.46 66.09,0 135.92,12.29 209.56,37.28l0 126.96c-41.02,-32.55 -75.48,-54.72 -103.37,-66.5 -27.82,-11.79 -59.94,-17.53 -95.81,-17.53 -79.3,0 -140.65,32.63 -184.58,97.72 -47.16,68.91 -70.82,160.08 -70.82,273.34 0,98.72 17.93,181.32 53.81,247.84 41.1,76.46 105.27,114.74 191.71,114.74 37.28,0 71.73,-7.14 103.37,-20.77 31.62,-13.69 66.5,-37.78 105.69,-71.81l0 119.47zm-414.39 378.12l70.32 -250.67 131.69 0 -120.4 250.67 -81.62 0zm1002.64 -448.02c-34.94,41.1 -66.58,70.4 -95.31,86.85 -50.98,29.81 -109.1,44.92 -174.2,44.92 -66.58,0 -119.97,-19.36 -160.99,-58.54 -49.57,-47.24 -74.55,-110.5 -74.55,-189.8 0,-93.91 35.37,-164.72 106.6,-211.47 31.64,-20.34 61.44,-35.87 89.26,-46.74 27.82,-10.38 90.67,-30.65 189.31,-60.45 41.1,-12.7 70.82,-27.82 88.26,-46.24 17.43,-17.93 25.98,-42.52 25.98,-74.07 0,-36.87 -14.61,-66.6 -43.92,-89.76 -29.23,-23.07 -67.5,-34.44 -114.74,-34.44 -40.52,0 -76.89,6.64 -108.52,19.34 -31.64,12.78 -70.82,36.86 -116.65,72.23l-27.82 -110.43c59.03,-27.9 110.01,-46.74 152.94,-57.12 43.01,-9.96 92.08,-15.11 147.79,-15.11 89.67,0 159.08,17.43 207.65,52.39 48.65,34.96 73.22,84.53 73.22,148.21l0 515.01c0,49.57 16.95,74.57 50.98,74.57 13.62,0 32.55,-8.97 57.12,-26.91l0 95.9c-44.91,28.73 -87.84,43.43 -128.43,43.43 -42.52,0 -74.57,-9.97 -95.82,-29.32 -21.25,-19.34 -37.28,-53.8 -48.16,-102.45zm-5.64 -401.19c-21.75,11.79 -37.78,20.25 -47.66,24.5 -9.96,4.31 -52.89,20.75 -128.93,49.56 -58.95,22.26 -100.05,50.07 -122.73,83.12 -23.07,33.53 -34.94,70.32 -34.94,110.42 0,46.33 12.78,83.12 38.77,110.93 25.5,27.9 59.45,42.01 102.38,42.01 66.58,0 118.97,-27.32 157.25,-82.12 24.07,-34.46 35.87,-72.23 35.87,-112.33l0 -226.09zm-353.12 -505.56l0 -121.79c43.43,-19.36 84.03,-28.82 121.3,-28.82 32.64,0 103.37,12.7 212.88,38.2 17.53,4.31 34.46,6.64 51.98,6.64 23.09,0 46.25,-9.47 68.41,-28.32l0 120.4c-29.23,15.1 -55.21,22.66 -77.87,22.66 -20.77,0 -70.82,-10.46 -150.62,-30.73 -40.6,-10.37 -78.3,-15.6 -113.24,-15.6 -36.87,0 -74.57,12.28 -112.85,37.36zm1105.11 135.92c128.87,0 229,43.43 300.23,129.78 67.5,81.7 101.05,188.89 101.05,321.99 0,142.06 -38.7,254.39 -115.67,336.09 -71.33,76.48 -166.13,114.76 -283.71,114.76 -126.54,0 -224.25,-42.02 -293.59,-125.63 -71.31,-85.44 -107.18,-198.27 -107.18,-338.01 0,-127.87 34.94,-233.14 105.27,-314.84 70.34,-81.19 168.06,-122.71 293.59,-124.12zm1 72.23c-30.23,0 -59.53,7.97 -87.85,24.07 -28.3,16.52 -50.98,38.2 -67.5,66.09 -43.92,71.25 -66.08,166.15 -66.08,285.54 0,123.22 22.16,220.51 67,292.67 16.52,26.99 39.19,48.66 67.08,64.68 27.82,16.52 57.12,24.57 87.35,24.57 30.14,0 59.44,-8.05 87.26,-24.57 27.9,-16.02 50.57,-37.7 67.1,-64.68 44.83,-72.16 67,-168.46 67,-289.35 0,-122.71 -22.18,-219.45 -67,-290.27 -36.37,-58.12 -87.85,-87.85 -154.35,-88.76zm1035.69 -295.08l575.89 0 0 90.17c-16.95,-5.15 -34.46,-7.97 -52.39,-7.97l-330.87 0 0 422.45 321.89 0c23.16,0 43.92,-2.32 61.36,-7.05l0 90.17c-14.61,-3.32 -34.46,-4.74 -59.45,-4.74l-323.8 0 0 437.56 321.49 0c17.93,0 38.69,-2.82 61.77,-8.46l0 97.72 -574.98 0c4.32,-16.52 6.64,-33.96 6.64,-52.89l0 -1003.55c0,-22.18 -2.32,-39.69 -7.55,-53.39zm932.24 342.24c62.85,-79.71 145.88,-119.39 248.34,-119.39 57.12,0 103.86,9.47 141.14,28.32 37.29,18.84 68.01,49.07 93,91.08 41.51,-43.84 82.12,-75.05 121.79,-92.99 39.61,-17.43 86.85,-26.41 141.57,-26.41 167.13,0 250.66,81.21 250.66,243.11l0 590.08c0,19.34 1.91,37.28 6.14,53.8l-182.66 0c4.23,-16.52 6.14,-34.46 6.14,-53.8l0 -561.76c0,-45.75 -7.55,-79.8 -22.66,-101.46 -22.66,-32.64 -63.68,-49.16 -123.64,-49.16 -57.12,0 -102.04,14.71 -133.59,44.42 -31.64,29.73 -47.74,71.25 -47.74,125.55l0 542.42c0,20.25 2.41,38.19 6.64,53.8l-182.67 0c4.24,-15.61 6.06,-33.55 6.06,-53.8l0 -561.76c0,-45.75 -7.96,-79.8 -23.99,-101.05 -25.48,-33.05 -65.67,-49.57 -120.38,-49.57 -54.3,0 -98.22,14.2 -131.27,43.01 -33.05,28.82 -49.57,67 -49.57,114.26l0 555.12c0,19.34 2.41,37.28 6.64,53.8l-183.16 0c4.23,-16.52 6.56,-34.46 6.56,-53.8l0 -760.05c0,-20.25 -2.33,-37.78 -6.56,-52.88l173.19 0 0 99.13zm1385.15 669.88l0 304.46c0,19.34 2.41,36.86 6.65,52.39l-183.17 0c4.24,-17.43 6.64,-34.88 6.64,-52.39l0 -1020.09c0,-17.43 -2.4,-35.45 -6.64,-53.38l174.2 0 0 123.7c63.26,-95.81 147.29,-143.97 252.57,-143.97 89.67,0 162.82,33.96 219.95,101.46 33.53,40.19 58.03,87.35 73.64,141.65 15.6,54.71 23.57,120.38 23.57,197.36 0,151.94 -32.55,268.59 -97.22,349.71 -28.32,34.54 -64.18,61.85 -107.19,82.2 -42.93,20.25 -88.26,30.23 -135.42,30.23 -91.17,0 -166.65,-37.78 -227.59,-113.33zm202.51 -681.17c-30.64,0 -59.95,7.56 -87.76,22.18 -28.32,15.1 -50.98,35.45 -67.5,60.44 -19.34,28.8 -33.05,63.26 -40.6,102.45 -7.56,39.61 -11.38,95.32 -11.38,167.56 0,75.05 4.73,133.1 14.2,174.7 9.46,41.51 25.98,78.3 50.06,109.92 33.47,43.43 77.39,65.19 132.19,65.19 64.18,0 113.24,-30.73 147.29,-92.5 33.46,-61.44 50.48,-150.11 50.48,-266.26 0,-117.58 -16.02,-205.33 -48.65,-263.46 -13.7,-23.57 -32.55,-42.43 -57.13,-57.04 -24.98,-14.69 -51.89,-22.24 -81.19,-23.16zm534.87 -87.84l174.18 0 0 110.5c15.54,-44.83 39.61,-76.97 71.25,-96.31 31.64,-19.34 80.29,-30.71 144.97,-34.46l0 133.1c-12.79,-0.42 -21.75,-0.91 -26.91,-0.91 -124.63,0 -186.98,67.99 -186.98,204.41l0 496.59c0,19.34 2.41,37.28 6.64,53.8l-183.16 0c4.23,-17.43 6.55,-35.37 6.55,-53.8l0 -759.55c0,-19.34 -2.32,-37.28 -6.55,-53.38zm1201.16 809.1c-55.71,27.9 -104.78,46.75 -147.71,57.12 -43.01,10.88 -92.57,16.12 -149.7,16.12 -148.2,0 -260.54,-43.43 -336.51,-130.36 -68.49,-76.46 -102.46,-181.25 -102.46,-314.84 0,-147.29 39.19,-261.95 117.08,-343.65 72.23,-75.98 167.56,-113.75 287.03,-113.75 115.65,0 205.33,36.37 270,109.02 64.68,73.22 99.14,177.5 103.87,313.42l-600.96 0c0,94.9 10.38,170.95 31.64,228.08 41.1,113.25 125.53,169.87 252.99,169.87 87.34,0 170.45,-33.46 249.74,-100.96l25 109.93zm-554.62 -482.89l414.88 0c-4.23,-49.57 -11.29,-89.67 -21.17,-120.4 -14.69,-46.25 -39.19,-83.53 -74.63,-111.34 -29.23,-23.16 -64.68,-34.94 -105.7,-34.94 -58.53,0 -106.69,23.07 -143.97,69.82 -37.28,46.74 -60.44,112.33 -69.4,196.86zm690.21 481.98l29.23 -117.98c49.56,40.1 92.49,68.41 129.36,84.03 36.78,16.02 77.37,24.07 121.3,24.07 54.3,0 96.31,-15.11 126.04,-45.34 27.9,-28.8 41.51,-61.85 41.51,-99.13 0,-36.87 -13.19,-66.09 -39.1,-87.85 -26.49,-21.25 -83.62,-49.56 -171.38,-84.01 -86.43,-33.97 -143.97,-72.23 -173.27,-114.66 -26.91,-39.19 -40.61,-83.12 -40.61,-131.77 0,-90.09 38.7,-159.08 116.17,-206.24 54.3,-33.05 118.47,-49.57 192.54,-49.57 82.62,0 168.54,19.34 258.71,57.62l-28.3 107.11c-76.98,-55.22 -148.21,-82.62 -213.38,-82.62 -46.75,0 -84.53,12.29 -113.75,36.37 -31.64,25.48 -47.24,57.62 -47.24,96.81 0,32.55 11.87,58.53 34.96,77.87 23.16,19.36 73.14,42.93 149.2,71.75 90.17,34.46 152.44,70.81 187.89,109.01 34.88,38.28 52.39,89.26 52.39,152.02 0,90.17 -34.46,160.99 -102.95,212.4 -57.12,43.01 -133.6,64.26 -230.33,64.26 -93.98,0 -186.98,-24.59 -278.96,-74.15zm1196.59 -57.62c-34.94,41.1 -66.58,70.4 -95.31,86.85 -50.98,29.81 -109.1,44.92 -174.2,44.92 -66.6,0 -119.97,-19.36 -160.99,-58.54 -49.57,-47.24 -74.55,-110.5 -74.55,-189.8 0,-93.91 35.37,-164.72 106.6,-211.47 31.64,-20.34 61.44,-35.87 89.26,-46.74 27.82,-10.38 90.67,-30.65 189.31,-60.45 41.1,-12.7 70.81,-27.82 88.26,-46.24 17.43,-17.93 25.98,-42.52 25.98,-74.07 0,-36.87 -14.61,-66.6 -43.92,-89.76 -29.23,-23.07 -67.5,-34.44 -114.76,-34.44 -40.51,0 -76.87,6.64 -108.51,19.34 -31.64,12.78 -70.82,36.86 -116.65,72.23l-27.82 -110.43c59.03,-27.9 110.01,-46.74 152.94,-57.12 43.01,-9.96 92.08,-15.11 147.79,-15.11 89.67,0 159.08,17.43 207.65,52.39 48.65,34.96 73.22,84.53 73.22,148.21l0 515.01c0,49.57 16.95,74.57 50.98,74.57 13.62,0 32.55,-8.97 57.12,-26.91l0 95.9c-44.92,28.73 -87.84,43.43 -128.43,43.43 -42.52,0 -74.57,-9.97 -95.82,-29.32 -21.25,-19.34 -37.28,-53.8 -48.16,-102.45zm-5.64 -401.19c-21.75,11.79 -37.78,20.25 -47.66,24.5 -9.96,4.31 -52.89,20.75 -128.95,49.56 -58.94,22.26 -100.04,50.07 -122.71,83.12 -23.07,33.53 -34.94,70.32 -34.94,110.42 0,46.33 12.78,83.12 38.77,110.93 25.5,27.9 59.45,42.01 102.38,42.01 66.58,0 118.97,-27.32 157.25,-82.12 24.07,-34.46 35.87,-72.23 35.87,-112.33l0 -226.09zm390.9 -349.38l174.18 0 0 110.5c15.54,-44.83 39.61,-76.97 71.25,-96.31 31.62,-19.34 80.29,-30.71 144.96,-34.46l0 133.1c-12.78,-0.42 -21.74,-0.91 -26.89,-0.91 -124.63,0 -186.98,67.99 -186.98,204.41l0 496.59c0,19.34 2.4,37.28 6.64,53.8l-183.16 0c4.23,-17.43 6.55,-35.37 6.55,-53.8l0 -759.55c0,-19.34 -2.32,-37.28 -6.55,-53.38zm622.13 -234.14c33.55,0 59.53,7.13 77.87,20.83 18.43,13.61 27.9,32.55 27.9,56.13 0,24.98 -9.46,44.83 -27.9,59.03 -18.34,14.61 -43.84,21.66 -75.96,21.66 -72.23,0 -108.1,-26.39 -108.1,-78.78 0,-24.09 9.46,-42.93 28.8,-57.62 19.34,-14.13 44.84,-21.25 77.39,-21.25zm-93.91 234.14l182.67 0c-4.24,16.52 -6.56,34.46 -6.56,53.38l0 759.55c0,18.43 2.32,36.37 6.56,53.8l-182.67 0c4.24,-16.52 6.15,-34.46 6.15,-53.8l0 -759.55c0,-19.84 -1.91,-37.78 -6.15,-53.38zm844.06 750.57c-34.94,41.1 -66.58,70.4 -95.31,86.85 -50.98,29.81 -109.1,44.92 -174.2,44.92 -66.58,0 -119.97,-19.36 -160.99,-58.54 -49.57,-47.24 -74.55,-110.5 -74.55,-189.8 0,-93.91 35.37,-164.72 106.6,-211.47 31.64,-20.34 61.44,-35.87 89.26,-46.74 27.82,-10.38 90.67,-30.65 189.31,-60.45 41.1,-12.7 70.81,-27.82 88.26,-46.24 17.43,-17.93 25.98,-42.52 25.98,-74.07 0,-36.87 -14.61,-66.6 -43.92,-89.76 -29.23,-23.07 -67.5,-34.44 -114.74,-34.44 -40.52,0 -76.89,6.64 -108.52,19.34 -31.64,12.78 -70.82,36.86 -116.65,72.23l-27.82 -110.43c59.03,-27.9 110.01,-46.74 152.94,-57.12 43.01,-9.96 92.08,-15.11 147.79,-15.11 89.67,0 159.08,17.43 207.65,52.39 48.65,34.96 73.22,84.53 73.22,148.21l0 515.01c0,49.57 16.95,74.57 50.98,74.57 13.62,0 32.55,-8.97 57.12,-26.91l0 95.9c-44.91,28.73 -87.84,43.43 -128.43,43.43 -42.52,0 -74.57,-9.97 -95.82,-29.32 -21.25,-19.34 -37.28,-53.8 -48.16,-102.45zm-5.64 -401.19c-21.75,11.79 -37.78,20.25 -47.66,24.5 -9.96,4.31 -52.89,20.75 -128.95,49.56 -58.94,22.26 -100.04,50.07 -122.71,83.12 -23.07,33.53 -34.94,70.32 -34.94,110.42 0,46.33 12.78,83.12 38.77,110.93 25.5,27.9 59.45,42.01 102.38,42.01 66.58,0 118.97,-27.32 157.25,-82.12 24.07,-34.46 35.87,-72.23 35.87,-112.33l0 -226.09zm572.65 -679.75c-4.24,15.52 -6.64,33.46 -6.64,53.8l0 1089.49c0,18.43 2.4,36.37 6.64,53.8l-183.16 0c4.23,-16.52 6.55,-34.46 6.55,-53.8l0 -1089.49c0,-19.34 -2.32,-37.29 -6.55,-53.8l183.16 0zm1358.99 1139.47c-55.71,27.9 -104.78,46.75 -147.7,57.12 -43.01,10.88 -92.58,16.12 -149.7,16.12 -148.21,0 -260.54,-43.43 -336.52,-130.36 -68.49,-76.46 -102.45,-181.25 -102.45,-314.84 0,-147.29 39.19,-261.95 117.06,-343.65 72.23,-75.98 167.56,-113.75 287.03,-113.75 115.67,0 205.33,36.37 270.02,109.02 64.67,73.22 99.13,177.5 103.86,313.42l-600.95 0c0,94.9 10.37,170.95 31.64,228.08 41.1,113.25 125.53,169.87 252.98,169.87 87.35,0 170.45,-33.46 249.75,-100.96l24.98 109.93zm-554.62 -482.89l414.9 0c-4.24,-49.57 -11.29,-89.67 -21.17,-120.4 -14.69,-46.25 -39.19,-83.53 -74.65,-111.34 -29.23,-23.16 -64.67,-34.94 -105.69,-34.94 -58.53,0 -106.69,23.07 -143.97,69.82 -37.28,46.74 -60.44,112.33 -69.41,196.86zm2000.15 -536.7l0 149.62c-49.57,-40.1 -93.49,-68.41 -132.18,-84.03 -38.7,-15.6 -83.12,-23.57 -132.6,-23.57 -121.4,0 -213.88,46.24 -277.65,138.32 -60.86,87.77 -91.09,200.6 -91.09,338.43 0,146.79 34.96,263.86 104.37,351.2 67.5,86.44 157.67,129.37 270,129.37 49.57,0 93.91,-8.97 132.19,-26.41 38.19,-17.53 80.19,-48.66 126.94,-92.58l0 146.38c-53.3,25 -100.55,42.01 -142.06,51.89 -42.02,9.88 -91.17,14.61 -147.29,14.61 -171.38,0 -302.64,-47.16 -394.22,-142.06 -98.14,-101.96 -147.21,-247.34 -147.21,-436.65 0,-120.38 19.77,-219.02 59.94,-295.99 93,-178.43 261.95,-267.69 507.47,-267.69 93.9,0 181.67,16.52 263.36,49.15zm505.06 190.22c128.86,0 228.99,43.43 300.22,129.78 67.5,81.7 101.05,188.89 101.05,321.99 0,142.06 -38.69,254.39 -115.67,336.09 -71.31,76.48 -166.13,114.76 -283.69,114.76 -126.54,0 -224.27,-42.02 -293.59,-125.63 -71.33,-85.44 -107.19,-198.27 -107.19,-338.01 0,-127.87 34.96,-233.14 105.28,-314.84 70.32,-81.19 168.04,-122.71 293.59,-124.12zm0.99 72.23c-30.21,0 -59.53,7.97 -87.84,24.07 -28.32,16.52 -50.98,38.2 -67.5,66.09 -43.92,71.25 -66.09,166.15 -66.09,285.54 0,123.22 22.18,220.51 67,292.67 16.52,26.99 39.19,48.66 67.08,64.68 27.82,16.52 57.13,24.57 87.35,24.57 30.15,0 59.45,-8.05 87.27,-24.57 27.9,-16.02 50.56,-37.7 67.08,-64.68 44.84,-72.16 67,-168.46 67,-289.35 0,-122.71 -22.16,-219.45 -67,-290.27 -36.37,-58.12 -87.85,-87.85 -154.35,-88.76zm568.83 -51.97l173.19 0 0 120.88c26,-40.6 52.39,-70.32 78.88,-89.26 50.07,-34.46 113.25,-51.89 189.72,-51.89 98.72,0 173.29,30.23 224.27,90.17 32.55,38.2 49.07,92.08 49.07,160.99l0 582.03c0,17.93 1.91,35.87 6.14,53.8l-182.66 0c4.23,-13.7 6.64,-31.64 6.64,-53.8l0 -557.03c0,-49.07 -14.2,-87.35 -43.01,-114.74 -28.82,-26.91 -69.84,-40.61 -123.22,-40.61 -66.09,0 -116.07,18.43 -149.62,55.3 -35.37,39.19 -52.89,89.67 -52.89,150.53l0 506.55c0,19.34 2.41,37.28 6.64,53.8l-183.16 0c4.24,-15.61 6.56,-33.55 6.56,-53.8l0 -760.05c0,-18.42 -2.32,-36.35 -6.56,-52.88zm961.54 80.29l-128.35 0 0 -80.29 128.35 0 0 -167.56 173.29 -18.84c-2.33,32.05 -3.32,53.3 -3.32,63.68l0 122.71 139.74 0 0 80.29 -139.74 0 0 626.86c0,51.48 21.25,77.47 64.18,77.47 20.33,0 46.33,-8.55 77.95,-25.98l0 89.26c-47.24,23.07 -95.89,34.46 -146.38,34.46 -57.12,0 -98.63,-13.7 -125.53,-41.6 -26.89,-27.82 -40.19,-70.32 -40.19,-128.37l0 -632.09zm765.94 670.29c-34.96,41.1 -66.58,70.4 -95.31,86.85 -50.98,29.81 -109.1,44.92 -174.2,44.92 -66.6,0 -119.97,-19.36 -160.99,-58.54 -49.57,-47.24 -74.55,-110.5 -74.55,-189.8 0,-93.91 35.37,-164.72 106.6,-211.47 31.64,-20.34 61.44,-35.87 89.26,-46.74 27.82,-10.38 90.67,-30.65 189.3,-60.45 41.1,-12.7 70.82,-27.82 88.27,-46.24 17.43,-17.93 25.98,-42.52 25.98,-74.07 0,-36.87 -14.61,-66.6 -43.93,-89.76 -29.23,-23.07 -67.49,-34.44 -114.74,-34.44 -40.52,0 -76.87,6.64 -108.51,19.34 -31.64,12.78 -70.82,36.86 -116.65,72.23l-27.82 -110.43c59.03,-27.9 110.01,-46.74 152.93,-57.12 43.01,-9.96 92.08,-15.11 147.79,-15.11 89.68,0 159.08,17.43 207.67,52.39 48.65,34.96 73.22,84.53 73.22,148.21l0 515.01c0,49.57 16.95,74.57 50.98,74.57 13.61,0 32.55,-8.97 57.12,-26.91l0 95.9c-44.92,28.73 -87.84,43.43 -128.45,43.43 -42.51,0 -74.55,-9.97 -95.81,-29.32 -21.25,-19.34 -37.28,-53.8 -48.16,-102.45zm-5.64 -401.19c-21.75,11.79 -37.78,20.25 -47.66,24.5 -9.96,4.31 -52.89,20.75 -128.95,49.56 -58.94,22.26 -100.05,50.07 -122.71,83.12 -23.07,33.53 -34.96,70.32 -34.96,110.42 0,46.33 12.79,83.12 38.78,110.93 25.5,27.9 59.45,42.01 102.37,42.01 66.6,0 118.99,-27.32 157.26,-82.12 24.07,-34.46 35.87,-72.23 35.87,-112.33l0 -226.09zm-191.22 -449.43l112.85 -256.81 145.88 0 -175.2 256.81 -83.53 0zm757.21 219.52c33.97,-43.01 64.68,-73.64 92.5,-92.58 46.33,-31.55 100.13,-47.16 160.99,-47.16 93.49,0 167.63,35.37 222.84,106.19 61.36,78.88 92,188.81 92,330.96 0,142.06 -31.56,255.39 -95.32,339.42 -62.77,84.01 -148.7,126.04 -258.22,126.04 -53.3,0 -99.13,-9.47 -137.82,-27.91 -39.2,-18.42 -77.47,-49.07 -115.16,-92.49l-48.16 104.78 -90.17 0c4.24,-14.61 6.56,-32.55 6.56,-53.8l0 -1089.49c0,-18.43 -2.32,-36.37 -6.56,-53.8l183.17 0c-4.24,15.52 -6.65,33.46 -6.65,53.8l0 396.04zm205.83 -34.04c-66.6,0 -122.31,33.53 -166.15,100.13 -28.8,42.92 -43.01,114.24 -43.01,212.88 0,135.92 3.32,219.02 10.38,249.74 9.96,40.61 33.05,74.57 69.41,102.38 35.45,26.49 75.05,39.69 118.06,39.69 64.59,0 114.16,-31.14 147.71,-93.91 33.53,-62.85 50.48,-154.43 50.48,-275.24 0,-117.98 -19.34,-206.32 -58.54,-264.36 -30.64,-45.75 -73.55,-69.82 -128.35,-71.31zm628.77 -319.57c33.55,0 59.53,7.13 77.89,20.83 18.43,13.61 27.9,32.55 27.9,56.13 0,24.98 -9.46,44.83 -27.9,59.03 -18.36,14.61 -43.84,21.66 -75.98,21.66 -72.23,0 -108.1,-26.39 -108.1,-78.78 0,-24.09 9.47,-42.93 28.82,-57.62 19.34,-14.13 44.83,-21.25 77.37,-21.25zm-93.9 234.14l182.66 0c-4.23,16.52 -6.56,34.46 -6.56,53.38l0 759.55c0,18.43 2.33,36.37 6.56,53.8l-182.66 0c4.23,-16.52 6.14,-34.46 6.14,-53.8l0 -759.55c0,-19.84 -1.91,-37.78 -6.14,-53.38zm586.34 -330.37c-4.23,15.52 -6.64,33.46 -6.64,53.8l0 1089.49c0,18.43 2.41,36.37 6.64,53.8l-183.16 0c4.23,-16.52 6.56,-34.46 6.56,-53.8l0 -1089.49c0,-19.34 -2.33,-37.29 -6.56,-53.8l183.16 0z"></path> </g> </g> </svg> 