<svg id="Layer_1" data-name="Layer 1" xmlns="http://www.w3.org/2000/svg" xmlns:xlink="http://www.w3.org/1999/xlink" viewBox="0 0 72.65 72.65"><defs><linearGradient id="linear-gradient" x1="37.59" y1="17.42" x2="37.59" y2="57.17" gradientUnits="userSpaceOnUse"><stop offset="0" stop-color="#d05523"/><stop offset=".3" stop-color="#d15922"/><stop offset=".62" stop-color="#d36621"/><stop offset=".95" stop-color="#d67c1e"/><stop offset="1" stop-color="#d7801d"/></linearGradient><linearGradient id="linear-gradient-2" x1="17827.36" y1="5806.54" x2="17827.36" y2="5879.2" gradientTransform="rotate(-90 6028.575 11835.115)" xlink:href="#linear-gradient"/></defs><path d="M44.87 57.17a14.42 14.42 0 110-28.84H45a8.91 8.91 0 015.91 2.31.92.92 0 001.1.11l6.39-4.13a.52.52 0 00.24-.38.53.53 0 00-.12-.44 17.77 17.77 0 00-25.91-1.36 17.65 17.65 0 00-5.51 12.45v16.27a3.46 3.46 0 01-3.45 3.45H18a3.45 3.45 0 01-3.45-3.45V38.7a6 6 0 011.75-4.24l7.59-7.59a3.94 3.94 0 000-5.56 4.33 4.33 0 00-6.13 0 3.94 3.94 0 000 5.56l1.41 1.41a1 1 0 01-1.46 1.46l-1.41-1.41a6 6 0 010-8.48 6.42 6.42 0 019.05 0 6 6 0 010 8.48l-7.59 7.59a3.91 3.91 0 00-1.15 2.78v14.46A1.39 1.39 0 0018 54.55h5.66A1.39 1.39 0 0025 53.16v-16.3a19.88 19.88 0 0135.06-12.4 2.63 2.63 0 01-.57 3.9l-6.39 4.12a3 3 0 01-3.6-.31 6.89 6.89 0 00-4.55-1.78h-.08a12.36 12.36 0 100 24.72H45a17.78 17.78 0 0013.48-6.33.55.55 0 00.13-.43.57.57 0 00-.25-.38L52 43.85a.92.92 0 00-1.13.12 9 9 0 01-15-6.68 1 1 0 012.06 0 6.9 6.9 0 0011.52 5.14 3 3 0 013.63-.31l6.37 4.11a2.62 2.62 0 01.58 3.89A19.86 19.86 0 0145 57.17z" fill="url(#linear-gradient)"/><path d="M36.33 72.65A36.32 36.32 0 0110.4 10.88 36.08 36.08 0 0136.12 0h.21A36.37 36.37 0 0170.7 48.12a24.25 24.25 0 00-.5 14.21l1.22 4.56a3.7 3.7 0 01-4.53 4.53l-4.56-1.22a24.25 24.25 0 00-14.21.5 36.43 36.43 0 01-11.78 2zm0-70.59h-.2A34.26 34.26 0 002.07 36.78a34.14 34.14 0 0034.26 33.81 34 34 0 0011.11-1.85 26.3 26.3 0 0115.41-.53l4.56 1.22a1.65 1.65 0 002-2l-1.22-4.56a26.3 26.3 0 01.53-15.41 34.33 34.33 0 00-32.39-45.4z" fill="url(#linear-gradient-2)"/></svg>