<svg xmlns="http://www.w3.org/2000/svg" viewBox="0 0 1135.34 342.43"><defs><style>.cls-1{fill:#434341;}.cls-2{fill:#af191c;}</style></defs><title>Ativo 1</title><g id="Camada_2" data-name="Camada 2"><g id="Camada_1-2" data-name="Camada 1"><path class="cls-1" d="M426.56,219.81V187.47h81q15,0,15-15,0-14.72-15-14.73H475.22q-22.74,0-35.22-12.16t-12.48-34.89q0-22.73,12.32-34.9T474.9,63.58h82.92V96.23H486.42q-15.36,0-15.37,14.41,0,14.73,15.37,14.73h32.34q23,0,35.21,12.17t12.17,34.89q0,23-12.17,35.22t-35.21,12.16Z"/><path class="cls-1" d="M598.15,219.81V0H641V63.58h37.14q38.73,0,58.43,19.69t19.69,58.42q0,38.74-19.69,58.43t-58.43,19.69Zm114.29-78.11q0-24-10.88-34.89T666.66,95.91H641v91.56h25.61q24,0,34.74-10.88t10.72-34.9Z"/><path class="cls-1" d="M856.82,219.81q-38.74,0-58.43-19.69t-19.69-58.43q0-38.73,19.69-58.42t58.43-19.69H894V0h42.9V219.81ZM894,95.91H868.35q-24,0-34.89,10.88t-10.88,34.89q0,24,10.88,34.74t34.89,10.73H894Z"/><path class="cls-1" d="M977.19,283.38V63.58h80q38.73,0,58.43,19.69t19.69,58.42q0,38.74-19.69,58.43t-58.43,19.69h-37.14v63.58Zm114.29-141.69q0-24-10.88-34.73T1045.7,96.23h-25.61v91.24h25.61q24,0,34.89-10.88T1091.48,141.69Z"/><path class="cls-1" d="M426.49,283.38v-4.72h13.64q3.52,0,3.52-3.41a3.45,3.45,0,0,0-.85-2.61,3.83,3.83,0,0,0-2.67-.8h-5.29a8.25,8.25,0,0,1-6.05-2.1,8.09,8.09,0,0,1-2.13-6,8,8,0,0,1,2.13-6,8.32,8.32,0,0,1,6.05-2.08h13.64v4.72H436.37a4,4,0,0,0-2.7.77,3.28,3.28,0,0,0-.88,2.59,3.37,3.37,0,0,0,.88,2.61,3.92,3.92,0,0,0,2.7.8h5.23a8.38,8.38,0,0,1,6.08,2q2.1,2,2.1,6.08a7.35,7.35,0,0,1-8.18,8.13Z"/><path class="cls-1" d="M483.44,269.51q0,7.33-3.81,10.86T469,283.9q-6.82,0-10.63-3.53t-3.81-10.86q0-7.33,3.81-10.86T469,255.13q6.82,0,10.63,3.53T483.44,269.51ZM469,279.06q8.3,0,8.3-9.55T469,260q-8.3,0-8.3,9.55T469,279.06Z"/><path class="cls-1" d="M501.86,283.38q-13.87,0-13.87-13.87t13.87-13.87H510v4.77h-6.76q-4.83,0-7,2.13t-2.13,7q0,4.83,2.13,7t7,2.13h7v4.77Z"/><path class="cls-1" d="M516.52,252.24v-6.59h6v6.59Zm0,31.15V255.65h6v27.74Z"/><path class="cls-1" d="M542.78,283.38q-13.87,0-13.87-13.87t13.87-13.87h8.81v4.72h-8.24q-4,0-6,1.59a6.85,6.85,0,0,0-2.25,5h16.2v4.6h-16.2a7.52,7.52,0,0,0,2,5.23q1.85,1.88,6.28,1.88h8.47v4.72Z"/><path class="cls-1" d="M571.2,283.38q-13.87,0-13.87-13.87t13.87-13.87h6.48v-10h6v37.74Zm6.48-23h-5q-4.83,0-7,2.16t-2.16,7q0,4.83,2.16,7t7,2.16h5Z"/><path class="cls-1" d="M598.94,283.38a8.65,8.65,0,1,1,0-17.28h10.69v-.91a5.32,5.32,0,0,0-1.05-3.75q-1.05-1.08-3.72-1.08H592v-4.72h13q5.74,0,8.22,2.47t2.47,8.21v17.05Zm10.74-12.62h-9.26q-4,0-4,4t4,4h9.26Z"/><path class="cls-1" d="M635.54,283.38q-13.87,0-13.87-13.87t13.87-13.87H642v-10h6v37.74Zm6.48-23h-5q-4.83,0-7,2.16t-2.16,7q0,4.83,2.16,7t7,2.16h5Z"/><path class="cls-1" d="M668.28,283.38q-13.87,0-13.87-13.87t13.87-13.87h8.81v4.72h-8.24q-4,0-6,1.59a6.85,6.85,0,0,0-2.25,5h16.2v4.6h-16.2a7.52,7.52,0,0,0,2,5.23q1.85,1.88,6.28,1.88h8.47v4.72Z"/><path class="cls-1" d="M697.33,283.38V245.64h6v10h6.48q13.87,0,13.87,13.87t-13.87,13.87Zm11-4.72q4.83,0,7-2.16t2.16-7q0-4.83-2.16-7t-7-2.16h-5v18.3Z"/><path class="cls-1" d="M730.07,283.38V255.65h11.31q4.61,0,6.71,2.1t2.1,6.71v3.47h-6v-3a3.81,3.81,0,0,0-4.43-4.43H736.1v22.91Z"/><path class="cls-1" d="M763.15,283.38a8.65,8.65,0,1,1,0-17.28h10.69v-.91a5.32,5.32,0,0,0-1.05-3.75q-1.05-1.08-3.72-1.08H756.21v-4.72h13q5.74,0,8.22,2.47t2.47,8.21v17.05Zm10.74-12.62h-9.26q-4,0-4,4t4,4h9.26Z"/><path class="cls-1" d="M786.11,283.38v-4.72h13.64q3.52,0,3.52-3.41a3.45,3.45,0,0,0-.85-2.61,3.83,3.83,0,0,0-2.67-.8h-5.29a8.25,8.25,0,0,1-6.05-2.1,8.09,8.09,0,0,1-2.13-6,8,8,0,0,1,2.13-6,8.32,8.32,0,0,1,6.05-2.08h13.64v4.72H796a4,4,0,0,0-2.7.77,3.28,3.28,0,0,0-.88,2.59,3.37,3.37,0,0,0,.88,2.61,3.92,3.92,0,0,0,2.7.8h5.23a8.38,8.38,0,0,1,6.08,2q2.1,2,2.1,6.08a7.35,7.35,0,0,1-8.18,8.13Z"/><path class="cls-1" d="M816,252.24v-6.59h6v6.59Zm0,31.15V255.65h6v27.74Z"/><path class="cls-1" d="M830.22,283.38V245.64h6v37.74Z"/><path class="cls-1" d="M856.48,283.38q-13.87,0-13.87-13.87t13.87-13.87h8.81v4.72h-8.24q-4,0-6,1.59a6.85,6.85,0,0,0-2.25,5H865v4.6h-16.2a7.52,7.52,0,0,0,2,5.23q1.85,1.88,6.28,1.88h8.47v4.72Z"/><path class="cls-1" d="M872.85,252.24v-6.59h6v6.59Zm0,31.15V255.65h6v27.74Z"/><path class="cls-1" d="M887.06,283.38V255.65h11.31q4.61,0,6.71,2.1t2.1,6.71v3.47h-6v-3a3.81,3.81,0,0,0-4.43-4.43h-3.64v22.91Z"/><path class="cls-1" d="M920.14,283.38a8.65,8.65,0,1,1,0-17.28h10.69v-.91a5.32,5.32,0,0,0-1.05-3.75q-1.05-1.08-3.72-1.08H913.21v-4.72h13q5.74,0,8.22,2.47t2.47,8.21v17.05Zm10.74-12.62h-9.26q-4,0-4,4t4,4h9.26Z"/><path class="cls-1" d="M440.13,333.33q-13.87,0-13.87-13.87t13.87-13.87h6.48v-10h6v37.74Zm6.48-23h-5q-4.83,0-7,2.16t-2.16,7q0,4.83,2.16,7t7,2.16h5Z"/><path class="cls-1" d="M472.87,333.33q-13.87,0-13.87-13.87t13.87-13.87h8.81v4.72h-8.24q-4,0-6,1.59a6.85,6.85,0,0,0-2.25,5h16.2v4.6h-16.2a7.52,7.52,0,0,0,2,5.23q1.85,1.88,6.28,1.88h8.47v4.72Z"/><path class="cls-1" d="M514,333.33q-13.87,0-13.87-13.87T514,305.6h6.48v-10h6v37.74Zm6.48-23h-5q-4.83,0-7,2.16t-2.16,7q0,4.83,2.16,7t7,2.16h5Z"/><path class="cls-1" d="M534.65,302.18v-6.59h6v6.59Zm0,31.15V305.6h6v27.74Z"/><path class="cls-1" d="M548.86,333.33V305.6h11.31q4.61,0,6.71,2.1t2.1,6.71v3.47h-6v-3a3.81,3.81,0,0,0-4.43-4.43h-3.64v22.91Z"/><path class="cls-1" d="M586.95,333.33q-13.87,0-13.87-13.87t13.87-13.87h8.81v4.72h-8.24q-4,0-6,1.59a6.85,6.85,0,0,0-2.25,5h16.2v4.6h-16.2a7.52,7.52,0,0,0,2,5.23q1.85,1.88,6.28,1.88H596v4.72Z"/><path class="cls-1" d="M603.32,302.18v-6.59h6v6.59Zm0,31.15V305.6h6v27.74Z"/><path class="cls-1" d="M627.41,333.33q-4.32,0-6.19-1.88t-1.88-6.2V310.31h-4.43V305.6h4.43v-7.28h6v7.28H635v4.72h-9.66V325a3,3,0,0,0,3.58,3.58h6v4.72Z"/><path class="cls-1" d="M667.43,319.46q0,7.33-3.81,10.86T653,333.85q-6.82,0-10.63-3.53t-3.81-10.86q0-7.33,3.81-10.86T653,305.08q6.82,0,10.63,3.53T667.43,319.46ZM653,329q8.3,0,8.3-9.55t-8.3-9.55q-8.3,0-8.3,9.55T653,329Z"/><path class="cls-1" d="M686.47,342.43V305.6H699q13.87,0,13.87,13.87T699,333.33H692.5v9.1Zm11-13.81q4.83,0,7-2.16t2.16-7q0-4.83-2.16-7t-7-2.16h-5v18.3Z"/><path class="cls-1" d="M730.3,333.33q-6,0-8.72-2.7t-2.7-8.72V305.6h6v16.48q0,3.41,1.51,4.92t4.92,1.51h6.54V305.6h6v27.74Zm-1.42-30,3.81-7.73h6.54l-5.06,7.73Z"/><path class="cls-1" d="M752.07,333.33V295.59h6v10h6.48q13.87,0,13.87,13.87t-13.87,13.87Zm11-4.72q4.83,0,7-2.16t2.16-7q0-4.83-2.16-7t-7-2.16h-5v18.3Z"/><path class="cls-1" d="M784.81,333.33V295.59h6v37.74Z"/><path class="cls-1" d="M799,302.18v-6.59h6v6.59Zm0,31.15V305.6h6v27.74Z"/><path class="cls-1" d="M825.28,333.33q-13.87,0-13.87-13.87t13.87-13.87h8.18v4.77H826.7q-4.83,0-7,2.13t-2.13,7q0,4.83,2.13,7t7,2.13h7v4.77Z"/><path class="cls-1" d="M867,319.46q0,7.33-3.81,10.86t-10.63,3.53q-6.82,0-10.63-3.53t-3.81-10.86q0-7.33,3.81-10.86t10.63-3.53q6.82,0,10.63,3.53T867,319.46ZM852.56,329q8.3,0,8.3-9.55t-8.3-9.55q-8.3,0-8.3,9.55T852.56,329Z"/><path class="cls-1" d="M0,166.67,166.67,333.33,333.33,166.67,166.67,0Zm299.65,0-133,133L133.6,266.58l24.1-24.1-16.84-16.84-24.1,24.1L33.69,166.67l83.39-83.39,25.25,25.25,16.84-16.84L133.92,66.43l32.74-32.74Z"/><polygon class="cls-2" points="241.65 50.69 357.54 166.59 241.26 282.88 258.1 299.72 374.39 183.44 384.58 173.24 391.23 166.59 258.49 33.85 241.65 50.69"/><rect class="cls-2" x="104.05" y="95.97" width="141.26" height="141.26" transform="translate(-66.64 172.31) rotate(-45)"/></g></g></svg>